<?xml version="1.0" encoding="utf-8"?>
<!-- Generator: Adobe Illustrator 18.1.1, SVG Export Plug-In . SVG Version: 6.00 Build 0)  -->
<svg version="1.1" id="Layer_1" xmlns="http://www.w3.org/2000/svg" xmlns:xlink="http://www.w3.org/1999/xlink" x="0px" y="0px"
	 viewBox="0 0 504 504" enable-background="new 0 0 504 504" xml:space="preserve">
<path fill="#010101" d="M497.9,252.1c0,135.8-110,245.9-245.9,245.9S6.2,387.9,6.2,252.1c-0.2-135.8,110-246,245.9-246
	S497.9,116.3,497.9,252.1z M252.1,196.4c-30.8,0-55.7,24.9-55.7,55.7s24.9,55.7,55.7,55.7s55.7-24.9,55.7-55.7
	C307.6,221.3,282.7,196.4,252.1,196.4z"/>
<path fill="#171717" d="M252.1,196.4c-30.8,0-55.7,24.9-55.7,55.7s24.9,55.7,55.7,55.7s55.7-24.9,55.7-55.7
	C307.6,221.3,282.7,196.4,252.1,196.4z M485,254c0,129.4-105,234.5-234.5,234.5S16,383.5,16,254s105-234.5,234.5-234.5
	S485,124.6,485,254z"/>
<linearGradient id="SVGID_1_" gradientUnits="userSpaceOnUse" x1="3.0105" y1="927.7698" x2="107.0092" y2="927.7698" gradientTransform="matrix(-1.4853 0.9815 0.9815 1.4853 -473.6678 -1013.2662)">
	<stop  offset="0" style="stop-color:#171717"/>
	<stop  offset="8.633447e-02" style="stop-color:#1A191A"/>
	<stop  offset="0.1641" style="stop-color:#202021"/>
	<stop  offset="0.2386" style="stop-color:#2B2B2B"/>
	<stop  offset="0.311" style="stop-color:#383838"/>
	<stop  offset="0.3819" style="stop-color:#4A4949"/>
	<stop  offset="0.4508" style="stop-color:#606060"/>
	<stop  offset="0.5169" style="stop-color:#7B7B7B"/>
	<stop  offset="0.5481" style="stop-color:#686868"/>
	<stop  offset="0.5934" style="stop-color:#525252"/>
	<stop  offset="0.642" style="stop-color:#404040"/>
	<stop  offset="0.6938" style="stop-color:#323232"/>
	<stop  offset="0.7498" style="stop-color:#272727"/>
	<stop  offset="0.8121" style="stop-color:#1F1F1F"/>
	<stop  offset="0.8859" style="stop-color:#191919"/>
	<stop  offset="1" style="stop-color:#171717"/>
</linearGradient>
<path fill="url(#SVGID_1_)" d="M285.6,414.8l95.6-63.6l67.1,40.4c0,0-31.9,38.8-65.3,58.9c-53.1,31.9-93.6,36.3-93.6,36.3
	L285.6,414.8z"/>
<linearGradient id="SVGID_2_" gradientUnits="userSpaceOnUse" x1="101.885" y1="473.913" x2="193.3189" y2="465.9135" gradientTransform="matrix(1.7803 0 0 -1.7803 0 897.266)">
	<stop  offset="0" style="stop-color:#171717"/>
	<stop  offset="9.733500e-02" style="stop-color:#191919"/>
	<stop  offset="0.1755" style="stop-color:#202020"/>
	<stop  offset="0.2471" style="stop-color:#292929"/>
	<stop  offset="0.3147" style="stop-color:#363636"/>
	<stop  offset="0.3795" style="stop-color:#464646"/>
	<stop  offset="0.4423" style="stop-color:#5A5A5A"/>
	<stop  offset="0.5023" style="stop-color:#747474"/>
	<stop  offset="0.5169" style="stop-color:#7B7B7B"/>
	<stop  offset="0.5481" style="stop-color:#686868"/>
	<stop  offset="0.5934" style="stop-color:#525252"/>
	<stop  offset="0.642" style="stop-color:#404040"/>
	<stop  offset="0.6938" style="stop-color:#323232"/>
	<stop  offset="0.7498" style="stop-color:#272727"/>
	<stop  offset="0.8121" style="stop-color:#1F1F1F"/>
	<stop  offset="0.8859" style="stop-color:#191919"/>
	<stop  offset="1" style="stop-color:#171717"/>
</linearGradient>
<path fill="url(#SVGID_2_)" d="M310.3,98.3L206.7,97l-23.1-68.2c0,0,34.2-9.6,73.3-9.6c30.1,0,89.7,20.5,89.7,20.5L310.3,98.3z"/>
<g>
	<path fill="#2D2E2D" stroke="#171717" d="M426.4,254H426c0,48.4-19.6,92.2-51.5,124.1c-31.7,31.7-75.7,51.5-124.1,51.5
		s-92.2-19.6-124.1-51.5C94.7,346.4,75,302.5,75,254s19.6-92.2,51.5-124.1c31.7-31.7,75.7-51.5,124.1-51.5s92.2,19.6,124.1,51.5
		C406.3,161.7,426,205.6,426,254H426.4h0.4c0-97.4-78.9-176.2-176.2-176.2S74.2,156.7,74.2,254s78.9,176.2,176.2,176.2
		S426.7,351.4,426.7,254H426.4z"/>
	<path fill="#010101" d="M429,254h-0.4c0,49.1-19.9,93.8-52.2,126s-76.7,52.2-126,52.2c-49.1,0-93.8-19.9-126-52.2
		s-52.2-76.7-52.2-126c0-49.1,19.9-93.8,52.2-126c32.2-32.2,76.7-52.2,126-52.2c49.1,0,93.8,19.9,126,52.2s52.2,76.7,52.2,126H429
		h0.4c0-98.8-80.1-178.9-178.9-178.9S71.6,155.2,71.6,254S151.7,433,250.5,433S429.4,352.9,429.4,254H429z"/>
	<path fill="#171717" stroke="#010101" stroke-width="0.25" d="M431.9,254h-0.4c0,50-20.3,95.2-53.1,128s-78,53.1-128,53.1
		s-95.2-20.3-128-53.1s-53.1-78-53.1-128s20.3-95.2,53.1-128s78-53.1,128-53.1s95.2,20.3,128,53.1s53.1,78,53.1,128L431.9,254l0.4,0
		c0-100.4-81.4-181.8-181.8-181.8S68.7,153.6,68.7,254s81.4,181.8,181.8,181.8S432.3,354.5,432.3,254L431.9,254L431.9,254z"/>
	<path fill="#171717" stroke="#010101" stroke-width="0.25" d="M434.7,254h-0.4c0,50.7-20.7,96.7-53.8,130
		c-33.3,33.3-79.2,53.8-130,53.8s-96.7-20.7-130-53.8c-33.3-33.3-53.8-79.2-53.8-130s20.7-96.7,53.8-130
		c33.3-33.3,79.2-53.8,130-53.8s96.7,20.7,130,53.8c33.3,33.3,53.8,79.2,53.8,130H434.7h0.4c0-102-82.6-184.6-184.6-184.6
		S65.9,152,65.9,254s82.6,184.6,184.6,184.6S435.1,356.1,435.1,254H434.7z"/>
	<path fill="#010101" d="M437.4,254h-0.4c0,51.5-20.8,98.1-54.7,131.9s-80.5,54.7-131.9,54.7s-98.1-20.8-131.9-54.7
		S63.9,305.5,63.9,254s20.8-98.1,54.7-131.9S199,67.5,250.5,67.5s98.1,20.8,131.9,54.7s54.7,80.5,54.7,131.9L437.4,254l0.4,0
		c0-103.4-83.9-187.3-187.3-187.3S63.2,150.6,63.2,254s83.9,187.3,187.3,187.3S437.8,357.5,437.8,254L437.4,254L437.4,254z"/>
	<path fill="#171717" stroke="#404040" stroke-width="0.25" d="M440.3,254h-0.4c0,52.3-21.2,99.7-55.5,133.9
		c-34.4,34.4-81.5,55.5-133.9,55.5s-99.7-21.2-133.9-55.5C82.2,353.6,61.1,306.4,61.1,254s21.2-99.7,55.5-133.9
		c34.4-34.4,81.5-55.5,133.9-55.5s99.7,21.2,133.9,55.5c34.4,34.4,55.5,81.5,55.5,133.9H440.3h0.4c0-105-85.1-190.1-190.1-190.1
		S60.4,149,60.4,254s85.1,190.1,190.1,190.1S440.6,359.1,440.6,254H440.3z"/>
	<path fill="#171717" stroke="#010101" stroke-width="0.25" d="M443.1,254h-0.4c0,53.1-21.5,101.1-56.3,135.8s-82.8,56.3-135.8,56.3
		s-101.1-21.5-135.8-56.3S58.6,307.1,58.6,254s21.5-101.1,56.3-135.8S197.6,62,250.7,62s101.1,21.5,135.8,56.3S442.8,201,442.8,254
		H443.1h0.4c0-106.6-86.3-193-193-193s-193,86.3-193,193s86.3,193,193,193s193-86.3,193-193L443.1,254L443.1,254z"/>
	<path fill="#010101" d="M445.8,254h-0.4c0,53.8-21.9,102.5-57.1,137.8c-35.2,35.2-84,57.1-137.8,57.1s-102.5-21.9-137.8-57.1
		s-57.1-84-57.1-137.8s21.9-102.5,57.1-137.8s84-57.1,137.8-57.1S353,81,388.3,116.3s57.1,84,57.1,137.8L445.8,254l0.4,0
		c0-108.1-87.6-195.7-195.7-195.7C142.4,58.4,54.7,146,54.7,254s87.6,195.7,195.7,195.7S446,362.1,446,254L445.8,254L445.8,254z"/>
	<path fill="#171717" stroke="#010101" stroke-width="0.25" d="M448.6,254h-0.4c0,54.7-22.1,104-57.9,139.8s-85.3,57.9-139.8,57.9
		c-54.7,0-104-22.1-139.8-57.9S53.1,308.5,53.1,254c0-54.7,22.1-104,57.9-139.9c35.8-35.8,85.3-57.9,139.8-57.9
		c54.7,0,104,22.1,139.8,57.9c35.8,35.8,57.9,85.3,57.9,139.9H448.6h0.4c0-109.7-88.8-198.5-198.5-198.5S52,144.4,52,254
		s88.8,198.5,198.5,198.5S449,363.7,449,254H448.6z"/>
	<path fill="#171717" stroke="#010101" stroke-width="0.25" d="M451.5,254h-0.4c0,55.4-22.4,105.6-58.7,141.9s-86.3,58.7-141.9,58.7
		c-55.4,0-105.6-22.4-141.9-58.7S49.8,309.6,49.8,254c0-55.4,22.4-105.6,58.7-141.9s86.3-58.7,141.9-58.7
		c55.4,0,105.6,22.4,141.9,58.7s58.7,86.3,58.7,141.9H451.5h0.4c0-111.3-90.1-201.4-201.4-201.4S49.1,142.8,49.1,254
		s90.1,201.4,201.4,201.4S451.8,365.3,451.8,254L451.5,254L451.5,254z"/>
	<path fill="#010101" stroke="#010101" stroke-width="0.5" d="M454.2,254h-0.4c0,56.1-22.8,107-59.6,143.8s-87.6,59.6-143.8,59.6
		c-56.1,0-107-22.8-143.8-59.6S46.8,310.3,46.8,254c0-56.1,22.8-107,59.6-143.8s87.6-59.6,143.8-59.6c56.1,0,107,22.8,143.8,59.6
		s59.6,87.6,59.6,143.8H454.2h0.4c0-112.7-91.3-204.2-204-204.2C137.8,50,46.3,141.4,46.3,254s91.3,204,204,204s204-91.3,204-204
		L454.2,254L454.2,254z"/>
	<path fill="#404040" stroke="#010101" d="M457,254h-0.4c0,57-23.1,108.4-60.4,145.8c-37.4,37.4-88.8,60.4-145.8,60.4
		s-108.4-23.1-145.8-60.4C67.3,362.5,44.3,311,44.3,254s23.1-108.4,60.4-145.8c37.4-37.4,88.8-60.4,145.8-60.4S358.9,71,396.3,108.2
		c37.4,37.4,60.4,88.8,60.4,145.8L457,254l0.4,0c0-114.3-92.6-206.9-206.9-206.9S43.6,139.8,43.6,254s92.6,206.9,206.9,206.9
		S457.4,368.3,457.4,254L457,254L457,254z"/>
	<path fill="#171717" stroke="#010101" stroke-width="0.25" d="M459.8,254h-0.5c0,57.7-23.3,109.8-61.2,147.8
		c-37.7,37.7-90.1,61.2-147.8,61.2s-109.8-23.3-147.8-61.2C64.8,364.1,41.3,311.7,41.3,254s23.3-109.8,61.2-147.8
		C140.3,68.5,192.6,45,250.3,45s109.8,23.3,147.8,61.2c37.7,37.7,61.2,90.1,61.2,147.8L459.8,254l0.4,0
		c0-115.9-93.8-209.7-209.7-209.7S40.8,138.2,40.8,254c0,115.7,93.8,209.7,209.7,209.7c115.7,0,209.7-93.8,209.7-209.7H459.8z"/>
	<path fill="#171717" stroke="#010101" stroke-width="0.25" d="M462.5,254h-0.4c0,58.4-23.7,111.4-62,149.7s-91.3,62-149.7,62
		S139,442,100.8,403.8s-62-91.3-62-149.7s23.7-111.4,62-149.7s91.3-62,149.7-62s111.4,23.7,149.7,62s62,91.3,62,149.7L462.5,254
		l0.4,0c0-117.3-95.1-212.6-212.4-212.6S37.9,136.5,37.9,254c0,117.3,95.1,212.4,212.6,212.4c117.3,0,212.4-95.1,212.4-212.4H462.5z
		"/>
	<path fill="#010101" d="M465.4,254H465c0,59.3-24,112.9-62.8,151.7s-92.4,62.8-151.7,62.8s-112.9-24-151.7-62.8S36,313.3,36,254
		s24-112.9,62.8-151.7s92.4-62.8,151.7-62.8s112.9,24,151.7,62.8S465,194.8,465,254L465.4,254l0.4,0c0-118.9-96.3-215.2-215.2-215.2
		S35.2,135.1,35.2,254s96.3,215.2,215.2,215.2S465.7,373,465.7,254L465.4,254L465.4,254z"/>
	<path fill="#171717" stroke="#010101" stroke-width="0.25" d="M468.2,254h-0.4c0,60-24.4,114.3-63.6,153.6
		c-39.3,39.3-93.6,63.7-153.6,63.7S136.4,447,97,407.7S33.5,314,33.5,254S57.9,139.8,97,100.4c39.3-39.3,93.6-63.6,153.6-63.6
		S365,61.2,404.3,100.4c39.3,39.3,63.6,93.6,63.6,153.6L468.2,254l0.4,0C468.6,133.7,371,36,250.5,36C130,36,32.4,133.7,32.4,254
		S130,472.1,250.5,472.1c120.3,0,218.1-97.6,218.1-218.1L468.2,254L468.2,254z"/>
	<path fill="#010101" stroke="#010101" stroke-width="0.5" d="M470.9,254h-0.4c0,60.7-24.6,115.7-64.4,155.6s-94.9,64.4-155.6,64.4
		s-115.7-24.6-155.6-64.4S30.4,314.8,30.4,254S55,138.3,94.9,98.5S189.8,34,250.5,34s115.7,24.6,155.6,64.4s64.4,94.9,64.4,155.6
		L470.9,254l0.4,0c0-121.9-98.8-220.9-220.9-220.9C128.4,33.1,29.4,131.9,29.4,254C29.4,376,128.2,475,250.3,475
		c121.9,0,220.9-98.8,220.9-220.9L470.9,254L470.9,254z"/>
	<path fill="#171717" stroke="#010101" stroke-width="0.25" d="M473.7,254h-0.4c0,61.6-24.9,117.3-65.3,157.6
		c-40.4,40.4-96.1,65.3-157.6,65.3c-61.6,0-117.3-24.9-157.6-65.3C52.5,371.2,27.6,315.5,27.6,254c0-61.6,24.9-117.3,65.3-157.6
		c40.4-40.4,96.1-65.3,157.6-65.3c61.6,0,117.3,24.9,157.6,65.3c40.4,40.4,65.3,96.1,65.3,157.6H473.7h0.4
		c0-123.6-100.1-223.6-223.6-223.6S26.9,130.5,26.9,254s100.1,223.6,223.6,223.6S474.1,377.6,474.1,254L473.7,254L473.7,254z"/>
	<path fill="#010101" stroke="#282828" stroke-width="0.25" d="M476.6,254h-0.4c0,62.3-25.3,118.7-66,159.5
		c-40.8,40.8-97.2,66-159.5,66s-118.7-25.3-159.5-66c-40.8-40.8-66-97.2-66-159.5s25.3-118.7,66-159.5s97.2-66,159.5-66
		s118.7,25.3,159.5,66s66,97.2,66,159.5L476.6,254l0.4,0c0-125-101.3-226.5-226.5-226.5C125.5,27.6,24,128.9,24,254
		c0,125,101.3,226.5,226.5,226.5c125,0,226.5-101.3,226.5-226.5L476.6,254L476.6,254z"/>
	<path fill="#171717" stroke="#282828" stroke-width="0.25" d="M479.3,254h-0.4c0,63-25.6,120.2-66.9,161.5s-98.5,66.9-161.5,66.9
		S130.3,456.8,89,415.5S22.1,317.1,22.1,254S47.7,133.9,89,92.6s98.5-66.9,161.5-66.9S370.7,51.3,412,92.6S478.9,191,478.9,254
		H479.3h0.4c0-126.6-102.5-229.3-229.3-229.3C123.7,24.7,21,127.3,21,254c0,126.6,102.5,229.3,229.3,229.3
		c126.6,0,229.3-102.5,229.3-229.3H479.3z"/>
	<path fill="#010101" d="M482.1,254h-0.4c0,63.9-25.8,121.6-67.7,163.6c-41.8,41.8-99.7,67.7-163.4,67.7
		c-63.9,0-121.6-25.8-163.6-67.7C45.2,375.8,19.4,318,19.4,254S45.2,132.5,87.1,90.4c41.8-41.8,99.7-67.7,163.6-67.7
		s121.6,25.8,163.4,67.7s67.7,99.7,67.7,163.6L482.1,254l0.4,0c0-128.2-103.8-232-232-232s-232,103.8-232,232s103.8,232,232,232
		s232-103.8,232-232H482.1z"/>
	<path fill="#010101" d="M485,254h-0.4c0,64.6-26.2,123.2-68.5,165.6s-100.9,68.5-165.6,68.5S127.3,462,84.9,419.6
		S16.4,318.7,16.4,254S42.5,130.9,84.9,88.5s100.9-68.5,165.6-68.5s123.2,26.2,165.6,68.5s68.5,100.9,68.5,165.6L485,254l0.4,0
		c0-129.6-105-234.8-234.8-234.8C120.9,19.2,15.7,124.4,15.7,254s105.2,234.8,234.8,234.8S485.3,383.7,485.3,254L485,254L485,254z"
		/>
</g>
<path fill="#010101" d="M252.1,196.4c-30.8,0-55.7,24.9-55.7,55.7s24.9,55.7,55.7,55.7s55.7-24.9,55.7-55.7
	C307.6,221.3,282.7,196.4,252.1,196.4z M417.7,253c0,91.2-73.9,165-165,165s-165-73.9-165-165s73.9-165,165-165
	C343.8,87.9,417.7,161.8,417.7,253z"/>
<linearGradient id="SVGID_3_" gradientUnits="userSpaceOnUse" x1="130.3193" y1="445.7404" x2="160.6186" y2="443.0896" gradientTransform="matrix(1.7803 0 0 -1.7803 0 897.266)">
	<stop  offset="0" style="stop-color:#010101"/>
	<stop  offset="0.1409" style="stop-color:#0A0B0A"/>
	<stop  offset="0.3721" style="stop-color:#1C1C1C"/>
	<stop  offset="0.5169" style="stop-color:#272626"/>
	<stop  offset="0.657" style="stop-color:#1C1C1C"/>
	<stop  offset="0.8693" style="stop-color:#0A0A0A"/>
	<stop  offset="1" style="stop-color:#010101"/>
</linearGradient>
<path fill="url(#SVGID_3_)" d="M273.6,124.3c0,0-8.2-1.6-16.4-1.8c-8.4-0.2-14.4,0.2-14.4,0.2L233.2,89c0,0,13.2-0.7,25.6-0.7
	c9.6,0,28.5,3.4,28.5,3.4L273.6,124.3z"/>
<path fill="#DFAF49" d="M340.7,157.6l-52.3,52.3c11.7,10.1,19.2,25.3,19.2,42c0,30.8-24.9,55.7-55.7,55.7s-55.7-24.9-55.7-55.7
	c0-17.1,7.7-32.4,19.8-42.5L163.8,157c-25.8,23.9-41.8,57.9-41.8,95.6c0,71.9,58.2,130.1,130.1,130.1s130.1-58.2,130.1-130.1
	C382.1,215.1,366.2,181.2,340.7,157.6z"/>
<g>
	<g id="XMLID_2_">
		<g>
			<path fill="#FFFFFF" d="M240.2,132.3c0.7-0.4,1.4-0.2,1.8,0.7l2.3,6.4c0.4,0.7,0.5,1.4,0.5,1.4s-0.5-0.5-0.9-1.1l-4.1-5.3
				C239.1,133.7,239.3,132.8,240.2,132.3L240.2,132.3z"/>
			<path fill="#FFFFFF" d="M261.9,133c0.4-0.7,1.1-1.1,1.8-0.7h0.2c0.7,0.4,0.9,1.2,0.4,1.8l-4.1,5.3c-0.5,0.5-0.9,1.1-0.9,1.1
				s0.2-0.7,0.5-1.4L261.9,133z"/>
			<path fill="#DFAF49" d="M252.3,138.7c-0.2,0.7-0.2,1.4-0.4,1.4c-0.2,0-0.2-0.7-0.4-1.4l-0.7-5c-0.2-0.7,0.4-1.4,1.1-1.4
				c0.7,0,1.1,0.7,1.1,1.4L252.3,138.7z"/>
			<path fill="#DFAF49" d="M271.3,141l-2.8,2.1c-0.7,0.5-1.2,0.9-1.2,0.9s0.4-0.5,0.9-1.2l2.1-2.8c0.5-0.7,1.2-0.9,1.6-0.4
				C272.2,139.9,271.9,140.6,271.3,141z"/>
			<path fill="#DFAF49" d="M235.4,143.1l-2.8-2.1c-0.7-0.5-0.9-1.2-0.4-1.6c0.4-0.4,1.1-0.2,1.6,0.4l2.1,2.8
				c0.5,0.7,0.9,1.2,0.9,1.2C236.6,144,236.1,143.7,235.4,143.1z"/>
			<polygon fill="#DFAF49" points="247.8,146.9 251.2,150.6 248.5,153.8 245.3,150.3 			"/>
			<polygon fill="#DFAF49" points="256.7,146.9 259.2,150.3 256,153.8 253.3,150.6 			"/>
			<polygon fill="#DFAF49" points="258.1,146.9 262.6,146.9 260.3,149.5 			"/>
			<polygon fill="#DFAF49" points="249.4,146.9 255.1,146.9 252.3,150.1 			"/>
			<polygon fill="#DFAF49" points="241.9,146.9 246.4,146.9 244.3,149.5 			"/>
			<polygon fill="#DFAF49" points="240.5,147.1 243.4,150.3 240,154.7 234.6,154.7 			"/>
			<polygon fill="#DFAF49" points="264,147.1 269.9,154.7 264.6,154.7 261.2,150.3 			"/>
			<path fill="#FFFFFF" d="M230.2,147.2l1.1,0.7c0.7,0.5,1.2,0.9,1.2,0.9s-0.7-0.2-1.4-0.4l-1.2-0.4c-0.7-0.2-1.2-0.7-1.1-1.1
				C228.8,146.5,229.5,146.7,230.2,147.2z"/>
			<path fill="#FFFFFF" d="M273.1,148.5c-0.7,0.2-1.4,0.4-1.4,0.4s0.5-0.4,1.2-0.9l1.1-0.7c0.7-0.5,1.4-0.5,1.4-0.2
				c0.2,0.4-0.4,0.9-1.1,1.1L273.1,148.5z"/>
			<polygon fill="#DFAF49" points="244.4,151.1 247.5,154.7 241.8,154.7 			"/>
			<polygon fill="#DFAF49" points="260.1,151.1 262.8,154.7 257.1,154.7 			"/>
			<polygon fill="#DFAF49" points="252.3,151.5 255.1,154.7 249.4,154.7 			"/>
			<polygon fill="#DFAF49" points="256.7,156.5 262.9,156.5 253.7,177.1 			"/>
			<polygon fill="#DFAF49" points="249.1,156.5 255.5,156.5 252.3,177.3 			"/>
			<polygon fill="#DFAF49" points="241.6,156.5 247.8,156.5 251,177.1 			"/>
			<path fill="#DFAF49" d="M256.5,174.1l8-17.4h4.5l-8,11.2l-0.2,0.2L256.5,174.1z"/>
			<path fill="#DFAF49" d="M240.2,156.5l8,17.4l-1.1-1.4l-3.2-4.6l-0.2-0.2l-8-11.2H240.2z"/>
			<path fill="#FFFFFF" d="M257.1,154.7h5.7l-2.7-3.4L257.1,154.7z M249.4,154.7h5.7l-2.8-3L249.4,154.7z M241.8,154.7h5.7l-3.2-3.4
				L241.8,154.7z M244.3,149.5l2-2.7h-4.5L244.3,149.5z M249.4,146.9l2.8,3l2.8-3H249.4z M247.8,146.9l-2.5,3.4l3.2,3.6l2.8-3
				L247.8,146.9z M259.2,150.3l-2.5-3.4l-3.4,3.7l2.8,3L259.2,150.3z M261.2,150.3l3.4,4.5h5.3l-5.9-7.7L261.2,150.3z M240,154.7
				l3.4-4.5l-2.8-3.2l-5.9,7.7H240z M255.5,156.5h-6.2l3.2,20.8L255.5,156.5z M219,183.4c0.4,0.5,1.1,0.5,1.4,0l12.1-17.1
				c0.4-0.5,1.1-0.5,1.4,0l13.2,18.7c0.4,0.5,1.1,0.5,1.4,0l1.8-2.5l-9.1-12.8c0-0.2-0.2-0.2-0.2-0.4l-8.5-12.1
				c-0.4-0.7-0.7-1.4-0.7-2.1c0-0.9,0.2-1.8,0.7-2.3l6.4-8.5c0.5-0.7,1.1-1.1,1.8-1.1h22.8c0.7,0,1.2,0.4,1.8,1.1l6.4,8.5
				c0.5,0.7,0.7,1.4,0.7,2.3c0,0.9-0.2,1.6-0.7,2.3l-8.5,12.1c0,0.2-0.2,0.2-0.2,0.4l-9.1,12.8l1.8,2.5c0.4,0.5,1.1,0.5,1.4,0
				l13.2-18.7c0.4-0.5,1.1-0.5,1.6,0l12.1,17.1c0.4,0.5,1.1,0.5,1.4,0l8.5-12.5c0.4-0.5,0.2-1.4-0.5-1.4h-2c-0.7,0-1.1,0-1.1-0.7
				v-0.4c0-0.7,0.4-1.4,1.1-1.4h12.3c0.7,0,1.4,0.7,1.4,1.4v0.4c0,0.7-0.7,0.7-1.4,0.7h-1.8c-0.7,0-1.6,0.7-2.1,1.4l-13.4,19.4
				c-0.4,0.5-1.1,0.5-1.6,0l-13.2-18.7c-0.4-0.5-1.1-0.5-1.6,0l-13.2,18.7c-0.4,0.5-1.1,0.5-1.4,0l-3.6-5l-3.6,5
				c-0.4,0.5-1.1,0.5-1.4,0l-13.2-18.7c-0.4-0.5-1.1-0.5-1.4,0l-13.2,18.7c-0.4,0.5-1.1,0.5-1.6,0l-13.4-19.2
				c-0.4-0.5-1.4-1.4-2.1-1.4h-1.8c-0.7,0-1.4,0-1.4-0.7v-0.4c0-0.7,0.7-1.4,1.4-1.4h12.3c0.7,0,1.1,0.7,1.1,1.4v0.4
				c0,0.7-0.4,0.7-1.1,0.7h-2c-0.7,0-0.9,0.7-0.5,1.4L219,183.4z M251,177.1l-3-20.5h-6.2L251,177.1z M256.7,156.5l-3,20.5l9.3-20.5
				H256.7z M248.2,174.1l-8-17.4h-4.5l8,11.2l0.2,0.2l3.2,4.6L248.2,174.1z M264.4,156.5l-8,17.4l4.3-6.1l0.2-0.2l8-11.2H264.4z
				 M286.3,184.4c-0.4,0.5-0.7,1.2-0.5,1.4c0.2,0.2,0.5-0.2,0.9-0.7l9.8-14.1c0.4-0.5,0.5-1.1,0.2-1.1c-0.4,0-0.9,0.5-1.2,1.1
				L286.3,184.4z M262.6,146.9h-4.5l2,2.7L262.6,146.9z M218.8,185.9c0.2-0.2-0.2-0.7-0.5-1.4l-9.3-13.4c-0.4-0.5-0.9-1.1-1.2-1.1
				s-0.2,0.5,0.2,1.1l9.8,14.1C218.3,185.5,218.6,185.9,218.8,185.9z"/>
			<path fill="#DFAF49" d="M218.3,184.4c0.4,0.5,0.7,1.2,0.5,1.4c-0.2,0.2-0.5-0.2-0.9-0.7l-9.8-14.1c-0.4-0.5-0.5-1.1-0.2-1.1
				s0.9,0.5,1.2,1.1L218.3,184.4z"/>
			<path fill="#DFAF49" d="M286.6,185c-0.4,0.5-0.9,0.9-0.9,0.7c-0.2-0.2,0.2-0.7,0.5-1.4l9.3-13.4c0.4-0.5,0.9-1.1,1.2-1.1
				c0.4,0,0.2,0.5-0.2,1.1L286.6,185z"/>
		</g>
	</g>
</g>
<g>
	<path d="M228.8,318.5l-0.5,3.4v0.2v0.2c0,0.4,0,0.5,0.2,0.7c0.2,0.2,0.2,0.4,0.4,0.5c-0.2,0.2-0.5,0.4-0.7,0.5
		c-0.2,0.2-0.4,0.5-0.4,0.9l-0.5,2.5h1.2v3.4h-3.7v-3.4h0.7l-1.4-8.2l-1.4,8.2h0.9v3.4h-3.7v-3.4h1.1l-0.4-2.5
		c0-0.4-0.2-0.7-0.4-1.1c-0.2-0.2-0.4-0.4-0.7-0.5c0.2-0.2,0.4-0.2,0.4-0.5c0.2-0.2,0.2-0.5,0.2-0.7v-0.2c0,0,0-0.2,0-0.4l-0.5-3.2
		h-1.4v-3.4h3.7v3.4h-1.2l1.4,8.2l1.4-8.2h-0.9v-3.4h3.7v3.4H225l1.4,8.2l1.4-8.2h-1.2v-3.4h3.7v3.4h-1.6V318.5z"/>
	<path fill="#FFFFFF" d="M230.9,332.2v-3.4h1.4v-2.1c0-0.5,0-0.9-0.2-1.1c-0.2-0.4-0.4-0.5-0.5-0.7c0.2-0.2,0.5-0.4,0.5-0.5
		s0.2-0.7,0.2-1.1v-3.2h-1.4v-3.4h8.2v5.3H238v-0.7c0-0.4,0-0.7-0.2-1.1c-0.2-0.2-0.4-0.4-0.7-0.4h-3.9v4.5h4.5v1.1h-4.5v3.4h3.7
		c0.4,0,0.5-0.2,0.7-0.4c0.2-0.2,0.2-0.5,0.2-1.1v-0.7h1.1v5.3h-8V332.2z"/>
	<path d="M247.3,328.8c-0.2,0.4-0.4,0.7-0.5,1.1c-0.2,0.4-0.5,0.5-0.9,0.7c-0.4,0.2-0.7,0.2-1.1,0.2h-4.6v-5.3h1.1v0.7
		c0,0.4,0.2,0.7,0.4,1.1c0.2,0.2,0.4,0.4,0.7,0.4h3.4c0.4,0,0.5-0.2,0.7-0.4c0.2-0.2,0.4-0.5,0.4-1.1c0-0.4,0-0.5-0.2-0.9
		c-0.2-0.4-0.4-0.5-0.5-0.7c-0.2-0.2-0.5-0.4-0.7-0.5c-0.4-0.2-0.5-0.2-0.9-0.2c-0.4,0-0.5,0.2-0.9,0.4c0-0.4,0-0.5-0.2-0.7
		c-0.2-0.2-0.4-0.4-0.5-0.5s-0.5-0.4-0.7-0.5c-0.4-0.2-0.5-0.4-0.7-0.5c-0.2-0.2-0.4-0.5-0.5-0.7c-0.2-0.4-0.2-0.7-0.2-1.1v-1.4
		c0-0.5,0-0.9,0.2-1.4c0.2-0.4,0.4-0.7,0.5-1.1c0.2-0.4,0.5-0.5,0.9-0.7c0.4-0.2,0.7-0.2,1.1-0.2h4.6v5.5h-1.1v-0.7
		c0-0.4-0.2-0.7-0.4-1.1c-0.2-0.2-0.4-0.4-0.7-0.4h-3.7c-0.4,0-0.5,0.2-0.7,0.4c-0.2,0.2-0.4,0.5-0.4,1.1c0,0.2,0,0.5,0.2,0.7
		c0.2,0.2,0.4,0.4,0.5,0.5s0.4,0.4,0.7,0.4c0.2,0.2,0.5,0.2,0.7,0.2c0.2,0,0.4,0,0.5,0s0.4-0.2,0.4-0.2c0,0.2,0,0.5,0.2,0.7
		c0.2,0.2,0.2,0.4,0.4,0.5c0.2,0.2,0.4,0.4,0.5,0.4c0.2,0.2,0.4,0.2,0.7,0.4c0.2,0.2,0.4,0.4,0.7,0.4c0.2,0.2,0.4,0.4,0.5,0.5
		s0.4,0.5,0.4,0.7c0.2,0.4,0.2,0.7,0.2,1.1v1.4C247.6,328.1,247.5,328.5,247.3,328.8z"/>
	<path fill="#FFFFFF" d="M255.6,322.1v-0.7c0-0.4-0.2-0.7-0.4-1.1c-0.2-0.2-0.4-0.4-0.7-0.4H253v3.2c0,0.5,0,0.9,0.2,1.1
		c0.2,0.4,0.4,0.5,0.5,0.5c-0.2,0.2-0.4,0.4-0.5,0.7c-0.2,0.4-0.2,0.7-0.2,1.1v2.3h1.4v3.4h-3.7v-3.4h1.2v-2.1c0-0.5,0-0.9-0.2-1.1
		c-0.2-0.4-0.4-0.5-0.5-0.7c0.2-0.2,0.5-0.4,0.5-0.5c0.2-0.4,0.2-0.7,0.2-1.1v-3.2h-1.6c-0.4,0-0.5,0.2-0.7,0.4
		c-0.2,0.2-0.4,0.5-0.4,1.1v0.7h-1.1v-5.3h8.4v5.3h-0.9V322.1z"/>
	<path d="M257.6,331v-3.4h1.4v-2.3c0-0.5,0-0.9-0.2-1.1c-0.2-0.4-0.4-0.5-0.5-0.7c0.2-0.2,0.5-0.4,0.5-0.5c0.2-0.4,0.2-0.7,0.2-1.1
		v-3.2h-1.4v-3.4h8.2v5.5h-1.1v-0.7c0-0.4,0-0.7-0.2-1.1s-0.4-0.4-0.7-0.4h-3.7v4.5h4.5v1.1h-4.5v3.4h3.7c0.4,0,0.5-0.2,0.7-0.4
		s0.2-0.5,0.2-1.1v-0.7h1.1v5.3h-8.2V331z"/>
	<path fill="#FFFFFF" d="M274.7,332.2c-0.2,0-0.5,0-0.7-0.2c-0.2-0.2-0.4-0.4-0.4-0.5c-0.2-0.2-0.2-0.4-0.2-0.5s0-0.4,0-0.7v-3.6
		c0-0.5-0.2-0.7-0.4-1.1c-0.2-0.2-0.4-0.4-0.7-0.4h-3v3.4h1.4v3.4H267v-3.4h1.4v-2c0-0.5,0-0.9-0.2-1.1c-0.2-0.4-0.4-0.5-0.5-0.7
		c0.2-0.2,0.5-0.4,0.5-0.5c0.2-0.4,0.2-0.7,0.2-1.1v-3.2H267v-3.4h5.2c0.4,0,0.9,0,1.2,0.2c0.4,0.2,0.7,0.4,0.9,0.7s0.5,0.7,0.5,1.1
		c0.2,0.4,0.2,0.9,0.2,1.4v3.2c0,0.5,0,0.9-0.2,1.2s-0.4,0.5-0.7,0.9c0.2,0.2,0.2,0.4,0.4,0.5c0,0.2,0.2,0.4,0.2,0.7v0.9
		c0,0.2,0,0.5,0,0.7c0,0.2,0,0.4,0.2,0.5c0,0.2,0.2,0.2,0.4,0.4c0.2,0,0.4,0.2,0.5,0.2h0.7v3.4h-1.8V332.2z M273.8,321.4
		c0-0.4-0.2-0.7-0.4-1.1c-0.2-0.4-0.4-0.4-0.7-0.4h-3.6v4.5h3.6c0.4,0,0.5-0.2,0.7-0.4c0.2-0.2,0.4-0.5,0.4-1.1V321.4z"/>
	<path d="M282.7,331v-3.4h0.9l-4.3-7.7v7.7h1.4v3.4H277v-3.4h1.4v-2.3c0-0.2,0-0.4,0-0.5s0-0.4-0.2-0.5c0-0.2-0.2-0.4-0.2-0.4
		c-0.2-0.2-0.2-0.2-0.4-0.4c0.2,0,0.4-0.2,0.4-0.4c0.2-0.2,0.2-0.4,0.2-0.4c0-0.2,0.2-0.4,0.2-0.5s0-0.4,0-0.5v-3.2H277v-3.4h3.7
		v3.4h-0.9l4.3,7.7v-7.7h-1.4v-3.4h3.7v3.4H285v3.2c0,0.2,0,0.4,0,0.5s0,0.4,0.2,0.5c0,0.2,0.2,0.4,0.2,0.4c0.2,0.2,0.2,0.2,0.4,0.4
		c-0.2,0-0.4,0.2-0.4,0.4c-0.2,0.2-0.2,0.4-0.2,0.4c0,0.2-0.2,0.4-0.2,0.5s0,0.4,0,0.5v2.3h1.4v3.4H282.7z"/>
	<path d="M237.5,337.2l-0.5,3.4v0.2v0.2c0,0.4,0,0.5,0.2,0.7c0.2,0.2,0.2,0.4,0.4,0.5c-0.2,0.2-0.5,0.4-0.7,0.5
		c-0.2,0.2-0.4,0.5-0.4,0.9l-0.5,2.5h1.2v3.4h-3.7v-3.2h0.7l-1.4-8.2l-1.4,8.2h0.9v3.4h-3.7v-3.4h1.1l-0.4-2.5
		c0-0.4-0.2-0.7-0.4-1.1c-0.2-0.2-0.4-0.4-0.7-0.5c0.2-0.2,0.4-0.2,0.4-0.5c0.2-0.2,0.2-0.5,0.2-0.7v-0.2c0,0,0-0.2,0-0.4l-0.5-3.2
		h-1.4v-3.4h3.7v3.4h-1.2l1.4,8.2l1.4-8.2h-0.9v-3.4h3.7v3.4h-1.1l1.4,8.2l1.4-8.2h-1.2v-3.4h3.7v3.4H237.5z"/>
	<path fill="#FFFFFF" d="M245.5,350.9v-3.4h1.4v-3.4h-4.8v3.4h1.4v3.4h-3.7v-3.4h1.4v-2.3c0-0.4,0-0.7-0.2-1.1
		c-0.2-0.4-0.4-0.5-0.7-0.7c0.2,0,0.4-0.2,0.4-0.4c0.2-0.2,0.2-0.4,0.2-0.4c0-0.2,0.2-0.4,0.2-0.5s0-0.4,0-0.5v-3.2h-1.4v-3.4h3.7
		v3.4h-1.4v4.5h4.8v-4.5h-1.4v-3.4h3.7v3.4h-1.2v3.2c0,0.2,0,0.4,0,0.5s0,0.4,0.2,0.5c0,0.2,0.2,0.4,0.2,0.4
		c0.2,0.2,0.2,0.2,0.4,0.4c-0.4,0.2-0.5,0.4-0.7,0.7c-0.2,0.4-0.2,0.7-0.2,1.1v2.3h1.2v3.4H245.5z"/>
	<path d="M250.3,349.5v-3.2h1.4V344c0-0.5,0-0.9-0.2-1.1c-0.2-0.4-0.4-0.5-0.5-0.7c0.2-0.2,0.5-0.4,0.5-0.5c0.2-0.4,0.2-0.7,0.2-1.1
		v-3.2h-1.4v-3.6h8.2v5.5h-1.1v-0.7c0-0.4,0-0.7-0.2-1.1c-0.2-0.2-0.4-0.4-0.7-0.4h-3.7v4.5h4.5v1.1h-4.5v3.4h3.7
		c0.4,0,0.5-0.2,0.7-0.4c0.2-0.2,0.2-0.5,0.2-1.1V344h1.1v5.3h-8.2V349.5z"/>
	<path fill="#FFFFFF" d="M267.2,350.9c-0.2,0-0.5,0-0.7-0.2s-0.4-0.4-0.4-0.5c-0.2-0.2-0.2-0.4-0.2-0.5s0-0.4,0-0.7v-3.6
		c0-0.5-0.2-0.7-0.4-1.1c-0.2-0.2-0.4-0.4-0.7-0.4h-3v3.4h1.4v3.4h-3.7v-3.4h1.4V345c0-0.5,0-0.9-0.2-1.1c-0.2-0.4-0.4-0.5-0.5-0.7
		c0.2-0.2,0.5-0.4,0.5-0.5c0.2-0.4,0.2-0.7,0.2-1.1v-3.2h-1.4v-3.4h5.2c0.4,0,0.9,0,1.2,0.2s0.7,0.4,0.9,0.7s0.5,0.7,0.5,1.1
		c0.2,0.4,0.2,0.9,0.2,1.4v3.2c0,0.5,0,0.9-0.2,1.2s-0.4,0.5-0.7,0.9c0.2,0.2,0.2,0.4,0.4,0.5c0.2,0.2,0.2,0.4,0.2,0.7v0.9
		c0,0.2,0,0.5,0,0.7c0,0.2,0,0.4,0.2,0.5s0.2,0.2,0.4,0.4c0.2,0,0.4,0.2,0.5,0.2h0.7v3.4h-1.8V350.9z M266.5,340
		c0-0.4-0.2-0.7-0.4-1.1c-0.2-0.2-0.4-0.4-0.7-0.4h-3.6v4.5h3.6c0.4,0,0.5-0.2,0.7-0.4c0.2-0.2,0.4-0.5,0.4-1.1V340z"/>
	<path d="M269.5,349.5v-3.2h1.4V344c0-0.5,0-0.9-0.2-1.1c-0.2-0.4-0.4-0.5-0.5-0.7c0.2-0.2,0.5-0.4,0.5-0.5c0.2-0.4,0.2-0.7,0.2-1.1
		v-3.2h-1.4v-3.6h8.2v5.5h-1.1v-0.7c0-0.4,0-0.7-0.2-1.1c-0.2-0.2-0.4-0.4-0.7-0.4H272v4.5h4.5v1.1H272v3.4h3.7
		c0.4,0,0.5-0.2,0.7-0.4c0.2-0.2,0.2-0.5,0.2-1.1V344h1.1v5.3h-8.2V349.5z"/>
</g>
<path fill="#010000" d="M369.9,224.4c0.3-0.1,0.6,0,0.9,0.1l3.3,1.8c0.3,0.1,0.4,0.3,0.5,0.6l1.5,8.2c0,0.2,0,0.5-0.2,0.7l-2.5,2.9
	c-0.2,0.2-0.4,0.3-0.7,0.4c-0.3,0.1-0.6,0-0.8-0.1l-9.7-4.8c-0.3-0.1-0.5-0.3-0.5-0.6s0-0.5,0.3-0.8l7.3-7.9
	C369.3,224.6,369.6,224.4,369.9,224.4L369.9,224.4z M370.1,225.3l0.4,2l1.8,0.9l0.9-1.3L370.1,225.3z M369.6,225.8l-5.2,5.6l5.5-3.9
	L369.6,225.8L369.6,225.8z M370,227.9l-6.4,4.6l6.8-2.4L370,227.9L370,227.9z M370.6,227.9l0.4,2.1l1-1.4L370.6,227.9z M373.4,227.4
	l-0.8,1.1l1.1,0.6L373.4,227.4L373.4,227.4z M372.4,228.8l-1,1.4l1.3,0.8l1.1-1.5L372.4,228.8z M370.5,230.6l-6.9,2.4l7.3-0.1
	L370.5,230.6L370.5,230.6z M371.1,230.6l0.4,2.1l0.8-1.2L371.1,230.6z M373.9,230.1l-0.9,1.2l1.3,0.8L373.9,230.1z M372.7,231.8
	l-0.9,1.2l1.4,0.9l1-1.1L372.7,231.8z M363.8,233.5l7.6,2.1l-0.4-2.3L363.8,233.5z M365,234.4l6.8,3.4l-0.3-1.6L365,234.4z
	 M371.6,233.4l0.4,2.1l1-1.2L371.6,233.4z M374.5,233.3l-0.8,0.9l1.1,0.7L374.5,233.3L374.5,233.3z M373.4,234.6l-1.3,1.5l0.4,1.9
	l2.3-2.6L373.4,234.6z"/>
<path fill="#010000" d="M135.5,282c-0.3,0.1-0.6,0-0.9-0.1l-3.3-1.8c-0.3-0.1-0.4-0.3-0.5-0.6l-1.5-8.2c0-0.2,0-0.5,0.2-0.7l2.5-2.9
	c0.2-0.2,0.4-0.3,0.7-0.4c0.3-0.1,0.6,0,0.8,0.1l9.7,4.8c0.3,0.1,0.5,0.3,0.5,0.6c0,0.3,0,0.5-0.3,0.8l-7.3,7.9
	C136,281.8,135.7,282,135.5,282L135.5,282z M135.2,281.1l-0.4-2l-1.8-0.9l-0.9,1.3L135.2,281.1z M135.7,280.6l5.2-5.6l-5.5,3.9
	L135.7,280.6L135.7,280.6z M135.3,278.5l6.4-4.6l-6.8,2.4L135.3,278.5L135.3,278.5z M134.8,278.5l-0.4-2.1l-1,1.4L134.8,278.5z
	 M131.9,279l0.8-1.1l-1.1-0.6L131.9,279L131.9,279z M133,277.5l1-1.4l-1.3-0.8l-1.1,1.5L133,277.5z M134.8,275.8l6.9-2.4l-7.3,0.1
	L134.8,275.8L134.8,275.8z M134.3,275.7l-0.4-2.1l-0.8,1.2L134.3,275.7z M131.4,276.3l0.9-1.2l-1.3-0.8L131.4,276.3z M132.6,274.6
	l0.9-1.2l-1.4-0.9l-1,1.1L132.6,274.6z M141.5,272.9l-7.6-2.1l0.4,2.3L141.5,272.9z M140.4,272l-6.8-3.4l0.3,1.6L140.4,272z
	 M133.8,273l-0.4-2.1l-1,1.2L133.8,273z M130.8,273.1l0.8-0.9l-1.1-0.7L130.8,273.1L130.8,273.1z M132,271.8l1.3-1.5l-0.4-1.9
	l-2.3,2.6L132,271.8z"/>
<path fill="#FFFFFF" d="M361.9,204c0.3-0.1,0.6-0.1,0.9,0l3.6,1.2c0.3,0.1,0.5,0.2,0.6,0.5l2.9,7.8c0.1,0.2,0,0.5-0.1,0.7l-1.9,3.2
	c-0.1,0.2-0.4,0.4-0.7,0.5c-0.3,0.1-0.5,0.1-0.8,0.1l-10.3-3.1c-0.3-0.1-0.5-0.3-0.6-0.5c-0.1-0.3,0-0.5,0.1-0.8l5.8-9.1
	C361.4,204.3,361.6,204.1,361.9,204L361.9,204z M362.2,204.8l0.7,1.9l1.9,0.6l0.7-1.4L362.2,204.8z M361.8,205.4l-4.1,6.4l4.7-4.8
	L361.8,205.4L361.8,205.4z M362.6,207.5l-5.5,5.7l6.3-3.5L362.6,207.5L362.6,207.5z M363.2,207.3l0.7,2l0.7-1.5L363.2,207.3z
	 M365.9,206.3l-0.6,1.2l1.1,0.4L365.9,206.3L365.9,206.3z M365.1,208l-0.7,1.5l1.4,0.6l0.8-1.6L365.1,208z M363.6,210l-6.4,3.6
	l7.2-1.4L363.6,210L363.6,210z M364.1,210l0.7,2l0.6-1.3L364.1,210z M366.9,208.9l-0.7,1.4l1.4,0.6L366.9,208.9z M366,210.8
	l-0.7,1.3l1.6,0.7l0.8-1.3L366,210.8z M357.5,214.1l7.9,0.7l-0.8-2.1L357.5,214.1z M358.8,214.7l7.3,2.2l-0.6-1.5L358.8,214.7z
	 M365.1,212.6l0.7,2l0.8-1.3L365.1,212.6z M368,212l-0.6,1l1.2,0.5L368,212L368,212z M367.1,213.4l-1,1.7l0.7,1.8l1.8-2.9
	L367.1,213.4z"/>
<path fill="#FFFFFF" d="M141,301.4c-0.3,0.1-0.6,0.1-0.9,0l-3.6-1.2c-0.3-0.1-0.5-0.2-0.6-0.5l-2.9-7.8c-0.1-0.2,0-0.5,0.1-0.7
	l1.9-3.2c0.1-0.2,0.4-0.4,0.7-0.5c0.3-0.1,0.5-0.1,0.8-0.1l10.3,3.1c0.3,0.1,0.5,0.3,0.6,0.5c0.1,0.3,0,0.5-0.1,0.8l-5.8,9.1
	C141.5,301.2,141.3,301.3,141,301.4L141,301.4z M140.6,300.6l-0.7-1.9l-1.9-0.6l-0.7,1.4L140.6,300.6z M141,300l4.1-6.4l-4.7,4.8
	L141,300L141,300z M140.3,298l5.5-5.7l-6.3,3.5L140.3,298L140.3,298z M139.7,298.1l-0.7-2l-0.7,1.5L139.7,298.1z M137,299.1l0.6-1.2
	l-1.1-0.4L137,299.1L137,299.1z M137.8,297.5l0.7-1.5l-1.4-0.6l-0.8,1.6L137.8,297.5z M139.3,295.4l6.4-3.6l-7.2,1.4L139.3,295.4
	L139.3,295.4z M138.8,295.5l-0.7-2l-0.6,1.3L138.8,295.5z M136,296.5l0.7-1.4l-1.4-0.6L136,296.5z M136.9,294.7l0.7-1.3l-1.6-0.7
	l-0.8,1.3L136.9,294.7z M145.4,291.4l-7.9-0.7l0.8,2.1L145.4,291.4z M144.1,290.8l-7.3-2.2l0.6,1.5L144.1,290.8z M137.8,292.9
	l-0.7-2l-0.8,1.3L137.8,292.9z M134.9,293.5l0.6-1l-1.2-0.5L134.9,293.5L134.9,293.5z M135.8,292l1-1.7l-0.7-1.8l-1.8,2.9L135.8,292
	z"/>
<path fill="#010000" d="M352.2,185.4c0.3-0.2,0.6-0.2,0.9-0.2l3.7,0.6c0.3,0,0.5,0.2,0.6,0.4l4.2,7.2c0.1,0.2,0.1,0.5,0,0.7
	l-1.3,3.5c-0.1,0.3-0.3,0.5-0.6,0.6c-0.3,0.1-0.5,0.2-0.8,0.2l-10.7-1.3c-0.3,0-0.6-0.2-0.7-0.4s-0.1-0.5,0-0.8l4.2-10
	C351.8,185.7,352,185.5,352.2,185.4L352.2,185.4z M352.8,186.2l1,1.7l2,0.3l0.4-1.5L352.8,186.2z M352.5,186.8l-3,7l3.8-5.6
	L352.5,186.8L352.5,186.8z M353.6,188.7l-4.4,6.5l5.6-4.6L353.6,188.7L353.6,188.7z M354.1,188.4l1.1,1.8l0.4-1.6L354.1,188.4z
	 M356.6,187l-0.4,1.3l1.2,0.2L356.6,187L356.6,187z M356.1,188.7l-0.5,1.6l1.5,0.4l0.5-1.8L356.1,188.7z M354.9,191l-5.6,4.6
	l6.8-2.6L354.9,191L354.9,191z M355.5,190.9l1.1,1.8l0.4-1.4L355.5,190.9z M358,189.4l-0.4,1.4l1.5,0.3L358,189.4z M357.5,191.4
	l-0.4,1.4l1.7,0.4l0.5-1.4L357.5,191.4z M349.6,196.1l7.9-0.6l-1.2-2L349.6,196.1z M351,196.4l7.6,0.9l-0.8-1.4L351,196.4z
	 M356.9,193.3l1.1,1.8l0.6-1.4L356.9,193.3z M359.6,192.2l-0.4,1.1l1.3,0.3L359.6,192.2L359.6,192.2z M359,193.8l-0.7,1.9l1,1.7
	l1.2-3.2L359,193.8z"/>
<path fill="#010000" d="M151.7,319.7c-0.3,0.2-0.6,0.2-0.9,0.2l-3.7-0.6c-0.3,0-0.5-0.2-0.6-0.4l-4.2-7.2c-0.1-0.2-0.1-0.5,0-0.7
	l1.3-3.5c0.1-0.3,0.3-0.5,0.6-0.6c0.3-0.1,0.5-0.2,0.8-0.2l10.7,1.3c0.3,0,0.6,0.2,0.7,0.4s0.1,0.5,0,0.8l-4.2,10
	C152.1,319.4,151.9,319.6,151.7,319.7L151.7,319.7z M151.1,318.9l-1-1.7l-2-0.3l-0.4,1.5L151.1,318.9z M151.4,318.3l3-7l-3.8,5.6
	L151.4,318.3L151.4,318.3z M150.3,316.4l4.4-6.5l-5.6,4.6L150.3,316.4L150.3,316.4z M149.8,316.7l-1.1-1.8l-0.4,1.6L149.8,316.7z
	 M147.3,318.1l0.4-1.3l-1.2-0.2L147.3,318.1L147.3,318.1z M147.8,316.4l0.5-1.6l-1.5-0.4l-0.5,1.8L147.8,316.4z M149,314l5.6-4.6
	l-6.8,2.6L149,314L149,314z M148.4,314.2l-1.1-1.8l-0.4,1.4L148.4,314.2z M145.9,315.7l0.4-1.4l-1.5-0.3L145.9,315.7z M146.4,313.7
	l0.4-1.4l-1.7-0.4l-0.5,1.4L146.4,313.7z M154.3,309l-7.9,0.6l1.2,2L154.3,309z M152.9,308.6l-7.6-0.9l0.8,1.4L152.9,308.6z
	 M147,311.8l-1.1-1.8l-0.6,1.4L147,311.8z M144.3,312.9l0.4-1.1l-1.3-0.3L144.3,312.9L144.3,312.9z M144.9,311.3l0.7-1.9l-1-1.7
	l-1.2,3.2L144.9,311.3z"/>
<path fill="#FFFFFF" d="M165.4,336.1c-0.3,0.2-0.5,0.3-0.8,0.3l-3.8,0.1c-0.3,0-0.5-0.1-0.7-0.3l-5.4-6.3c-0.2-0.2-0.2-0.4-0.1-0.7
	l0.7-3.7c0.1-0.3,0.2-0.5,0.4-0.7c0.2-0.2,0.5-0.3,0.8-0.3l10.8-0.6c0.3,0,0.6,0.1,0.8,0.3c0.2,0.2,0.2,0.5,0.1,0.8l-2.4,10.5
	C165.7,335.7,165.6,335.9,165.4,336.1L165.4,336.1z M164.7,335.4l-1.3-1.5l-2,0.1l-0.2,1.5L164.7,335.4z M164.9,334.7l1.7-7.4
	l-2.8,6.2L164.9,334.7L164.9,334.7z M163.5,333.1l3.2-7.2l-4.7,5.5L163.5,333.1L163.5,333.1z M163,333.4l-1.4-1.6l-0.2,1.7
	L163,333.4z M160.8,335.3l0.1-1.3l-1.2,0L160.8,335.3L160.8,335.3z M161,333.5l0.2-1.7l-1.5-0.1l-0.2,1.8L161,333.5z M161.7,331
	l4.8-5.6l-6.3,3.8L161.7,331L161.7,331z M161.2,331.3l-1.3-1.6l-0.1,1.5L161.2,331.3z M159,333.1l0.2-1.5l-1.5-0.1L159,333.1z
	 M159.2,331.1l0.2-1.5l-1.7-0.1l-0.3,1.5L159.2,331.1z M166.1,325.1l-7.6,2l1.5,1.7L166.1,325.1z M164.6,325l-7.6,0.5l1.1,1.3
	L164.6,325z M159.4,329.1l-1.4-1.6l-0.3,1.5L159.4,329.1z M156.9,330.7l0.2-1.2l-1.3-0.1L156.9,330.7L156.9,330.7z M157.2,329l0.4-2
	l-1.3-1.5l-0.7,3.4L157.2,329z"/>
<path fill="#010000" d="M180.6,349.7c-0.2,0.3-0.5,0.4-0.7,0.5l-3.7,0.7c-0.3,0.1-0.5,0-0.7-0.1l-6.4-5.3c-0.2-0.2-0.3-0.4-0.3-0.7
	l0-3.8c0-0.3,0.1-0.5,0.3-0.8c0.2-0.2,0.4-0.4,0.7-0.5l10.5-2.5c0.3-0.1,0.6,0,0.8,0.1c0.2,0.2,0.3,0.4,0.3,0.8L181,349
	C180.9,349.2,180.8,349.5,180.6,349.7L180.6,349.7z M179.9,349.2l-1.5-1.3l-2,0.4l0.1,1.6L179.9,349.2z M179.9,348.4l0.4-7.6
	l-1.7,6.5L179.9,348.4L179.9,348.4z M178.3,347.1l1.9-7.7l-3.7,6.2L178.3,347.1L178.3,347.1z M177.9,347.5l-1.6-1.4l0.1,1.7
	L177.9,347.5z M176,349.7l-0.1-1.3l-1.2,0.2L176,349.7L176,349.7z M175.9,347.9l-0.1-1.7l-1.5,0.2l0.1,1.8L175.9,347.9z
	 M176.2,345.3l3.7-6.3l-5.5,4.8L176.2,345.3L176.2,345.3z M175.7,345.7l-1.6-1.3l0.1,1.5L175.7,345.7z M173.8,347.9l-0.1-1.5
	l-1.5,0.2L173.8,347.9z M173.7,345.9l-0.1-1.5l-1.7,0.2l0,1.5L173.7,345.9z M179.4,338.8l-7.2,3.3l1.8,1.5L179.4,338.8z M178,338.9
	l-7.4,1.8l1.3,1.1L178,338.9z M173.6,343.9l-1.6-1.4l0,1.5L173.6,343.9z M171.4,345.8l0-1.2l-1.3,0.2L171.4,345.8L171.4,345.8z
	 M171.4,344.1l0-2l-1.5-1.3l-0.1,3.4L171.4,344.1z"/>
<path fill="#FFFFFF" d="M198.6,360.6c-0.2,0.3-0.4,0.5-0.6,0.6l-3.5,1.4c-0.3,0.1-0.5,0.1-0.7,0l-7.2-4.1c-0.2-0.1-0.3-0.3-0.4-0.6
	l-0.6-3.7c0-0.3,0-0.5,0.2-0.8c0.1-0.3,0.3-0.4,0.6-0.6l9.9-4.3c0.3-0.1,0.6-0.1,0.8,0s0.4,0.4,0.4,0.7l1.4,10.7
	C198.8,360.1,198.8,360.3,198.6,360.6L198.6,360.6z M197.8,360.2l-1.7-1l-1.9,0.7l0.4,1.5L197.8,360.2z M197.7,359.5l-0.9-7.5
	l-0.5,6.7L197.7,359.5L197.7,359.5z M195.8,358.4l0.6-7.9l-2.5,6.7L195.8,358.4L195.8,358.4z M195.5,358.9l-1.8-1l0.4,1.6
	L195.5,358.9z M194,361.4l-0.3-1.3l-1.1,0.4L194,361.4L194,361.4z M193.6,359.6l-0.4-1.7l-1.4,0.4l0.5,1.8L193.6,359.6z M193.5,357
	l2.6-6.8l-4.6,5.7L193.5,357L193.5,357z M193.1,357.5l-1.8-1l0.4,1.4L193.1,357.5z M191.6,360l-0.4-1.5l-1.4,0.4L191.6,360z
	 M191.1,358l-0.3-1.4l-1.6,0.5l0.3,1.5L191.1,358z M195.5,350l-6.5,4.5l2,1.1L195.5,350z M194.1,350.4l-7,3l1.4,0.8L194.1,350.4z
	 M190.7,356.1l-1.8-1l0.2,1.5L190.7,356.1z M188.8,358.4l-0.2-1.2l-1.2,0.4L188.8,358.4L188.8,358.4z M188.6,356.7l-0.3-2l-1.7-1
	l0.5,3.4L188.6,356.7z"/>
<path fill="#010000" d="M218.3,368.2c-0.1,0.3-0.3,0.6-0.5,0.7l-3.2,2c-0.2,0.2-0.5,0.2-0.7,0.1l-7.8-2.8c-0.2-0.1-0.4-0.3-0.5-0.6
	l-1.2-3.6c-0.1-0.3-0.1-0.5,0-0.8c0.1-0.3,0.3-0.5,0.5-0.7l9-5.9c0.3-0.2,0.5-0.2,0.8-0.1s0.4,0.3,0.5,0.6l3.2,10.3
	C218.4,367.6,218.4,367.9,218.3,368.2L218.3,368.2z M217.4,367.9l-1.9-0.7l-1.7,1l0.6,1.4L217.4,367.9z M217.2,367.3l-2.2-7.3
	l0.7,6.7L217.2,367.3L217.2,367.3z M215.1,366.5l-0.8-7.8l-1.3,7.1L215.1,366.5L215.1,366.5z M214.9,367.1l-2-0.7l0.7,1.5
	L214.9,367.1z M213.9,369.8l-0.5-1.2l-1,0.6L213.9,369.8L213.9,369.8z M213.1,368.1l-0.7-1.6l-1.3,0.7l0.8,1.7L213.1,368.1z
	 M212.5,365.6l1.3-7.2l-3.5,6.4L212.5,365.6L212.5,365.6z M212.2,366.1l-2-0.7l0.6,1.3L212.2,366.1z M211.3,368.8l-0.6-1.4l-1.3,0.7
	L211.3,368.8z M210.4,367l-0.6-1.4l-1.5,0.8l0.5,1.4L210.4,367z M213.4,358.3l-5.6,5.5l2.2,0.8L213.4,358.3z M212.1,359l-6.3,4.2
	l1.6,0.6L212.1,359z M209.6,365.2l-2-0.7l0.5,1.4L209.6,365.2z M208.2,367.8l-0.4-1.1l-1.2,0.6L208.2,367.8L208.2,367.8z
	 M207.7,366.1l-0.6-1.9l-1.9-0.7l1.1,3.3L207.7,366.1z"/>
<path fill="#FFFFFF" d="M238.9,372.3c-0.1,0.3-0.2,0.6-0.4,0.8l-2.8,2.5c-0.2,0.2-0.4,0.3-0.7,0.2l-8.2-1.4c-0.2,0-0.4-0.2-0.6-0.5
	l-1.8-3.3c-0.1-0.2-0.2-0.5-0.1-0.8c0-0.3,0.2-0.5,0.4-0.7l7.9-7.4c0.2-0.2,0.5-0.3,0.8-0.3c0.3,0,0.5,0.2,0.6,0.5l4.9,9.6
	C238.9,371.7,238.9,372,238.9,372.3L238.9,372.3z M238,372.2l-2-0.3l-1.5,1.3l0.9,1.3L238,372.2z M237.7,371.5l-3.5-6.8l1.8,6.5
	L237.7,371.5L237.7,371.5z M235.5,371.2l-2.2-7.6l-0.1,7.2L235.5,371.2L235.5,371.2z M235.4,371.7l-2.1-0.4l0.9,1.4L235.4,371.7z
	 M234.9,374.6l-0.7-1.1l-0.9,0.8L234.9,374.6L234.9,374.6z M233.8,373.1l-1-1.4l-1.2,0.9l1,1.5L233.8,373.1z M232.8,370.7l0.1-7.3
	l-2.4,6.9L232.8,370.7L232.8,370.7z M232.6,371.3l-2.1-0.4l0.9,1.2L232.6,371.3z M232.1,374.1l-0.8-1.2l-1.2,0.9L232.1,374.1z
	 M231,372.5l-0.8-1.2l-1.4,1l0.7,1.3L231,372.5z M232.4,363.4l-4.6,6.4l2.3,0.4L232.4,363.4z M231.2,364.3l-5.5,5.2l1.6,0.3
	L231.2,364.3z M229.9,370.8l-2.1-0.4l0.7,1.3L229.9,370.8z M228.9,373.6l-0.6-1.1l-1,0.8L228.9,373.6L228.9,373.6z M228.1,372.1
	l-1-1.7l-1.9-0.3l1.7,3L228.1,372.1z"/>
<path fill="#010000" d="M259.5,372.8c0,0.3-0.1,0.6-0.3,0.8l-2.4,2.9c-0.2,0.2-0.4,0.4-0.6,0.4l-8.3,0c-0.3,0-0.5-0.1-0.6-0.4
	l-2.4-2.9c-0.2-0.2-0.3-0.5-0.3-0.8c0-0.3,0.1-0.6,0.2-0.8l6.4-8.7c0.2-0.3,0.4-0.4,0.7-0.4c0.3,0,0.5,0.1,0.7,0.4l6.5,8.6
	C259.4,372.2,259.5,372.5,259.5,372.8L259.5,372.8z M258.6,372.9l-2,0l-1.2,1.6l1.1,1.1L258.6,372.9z M258.2,372.3l-4.6-6.1l2.9,6.1
	L258.2,372.3L258.2,372.3z M256,372.3l-3.5-7.1l1.2,7.1L256,372.3L256,372.3z M255.9,372.9l-2.1,0l1.2,1.2L255.9,372.9z
	 M255.9,375.8l-0.9-0.9l-0.7,0.9L255.9,375.8L255.9,375.8z M254.7,374.5l-1.2-1.2l-1,1.1l1.3,1.3L254.7,374.5z M253.2,372.3
	l-1.2-7.2l-1.1,7.2L253.2,372.3L253.2,372.3z M253.1,372.9l-2.1,0l1,1L253.1,372.9z M253.1,375.8l-1-1.1l-1,1.1L253.1,375.8z
	 M251.7,374.3l-1-1.1l-1.2,1.2l1,1.2L251.7,374.3z M251.5,365.2l-3.4,7.1l2.3,0L251.5,365.2z M250.5,366.2l-4.5,6.1l1.7,0
	L250.5,366.2z M250.3,372.9l-2.1,0l1,1.2L250.3,372.9z M249.9,375.8l-0.8-0.9l-0.9,0.9L249.9,375.8L249.9,375.8z M248.8,374.5
	l-1.3-1.6l-2,0l2.2,2.7L248.8,374.5z"/>
<path fill="#FFFFFF" d="M280.7,369.5c0.1,0.3,0,0.6-0.1,0.9l-1.8,3.3c-0.1,0.3-0.3,0.4-0.6,0.5l-8.2,1.5c-0.2,0-0.5,0-0.7-0.2
	l-2.9-2.5c-0.2-0.2-0.3-0.4-0.4-0.7c-0.1-0.3,0-0.6,0.1-0.8l4.8-9.7c0.1-0.3,0.3-0.5,0.6-0.5c0.3,0,0.5,0,0.8,0.3l7.9,7.3
	C280.5,369,280.7,369.2,280.7,369.5L280.7,369.5z M279.8,369.7l-2,0.4l-0.9,1.8l1.3,0.9L279.8,369.7z M279.3,369.2l-5.6-5.2l3.9,5.5
	L279.3,369.2L279.3,369.2z M277.2,369.6l-4.6-6.4l2.4,6.8L277.2,369.6L277.2,369.6z M277.2,370.2l-2.1,0.4l1.4,1L277.2,370.2z
	 M277.7,373.1l-1.1-0.8l-0.6,1.1L277.7,373.1L277.7,373.1z M276.3,372l-1.4-1l-0.8,1.3l1.5,1.1L276.3,372z M274.5,370.1l-2.4-6.9
	l0.1,7.3L274.5,370.1L274.5,370.1z M274.5,370.7l-2.1,0.4l1.2,0.8L274.5,370.7z M275,373.5l-1.2-0.9l-0.8,1.3L275,373.5z
	 M273.3,372.4l-1.2-0.9l-0.9,1.4l1.1,1L273.3,372.4z M271.6,363.4l-2.1,7.6l2.3-0.4L271.6,363.4z M270.7,364.6l-3.4,6.8l1.6-0.3
	L270.7,364.6z M271.7,371.2l-2.1,0.4l1.2,1L271.7,371.2z M271.8,374.1l-0.9-0.8l-0.7,1.1L271.8,374.1L271.8,374.1z M270.5,373
	l-1.5-1.3l-1.9,0.4l2.6,2.3L270.5,373z"/>
<path fill="#010000" d="M300.6,362.7c0.1,0.3,0.1,0.6,0,0.9l-1.2,3.6c-0.1,0.3-0.2,0.5-0.5,0.6l-7.8,2.9c-0.2,0.1-0.5,0-0.7-0.1
	l-3.2-1.9c-0.2-0.1-0.4-0.4-0.5-0.7c-0.1-0.3-0.1-0.5-0.1-0.8l3.1-10.3c0.1-0.3,0.3-0.5,0.5-0.6c0.3-0.1,0.5,0,0.8,0.1l9.1,5.8
	C300.4,362.2,300.5,362.4,300.6,362.7L300.6,362.7z M299.8,363.1l-1.9,0.7l-0.6,1.9l1.4,0.7L299.8,363.1z M299.2,362.7l-6.4-4.1
	l4.8,4.7L299.2,362.7L299.2,362.7z M297.2,363.4l-5.7-5.5l3.5,6.3L297.2,363.4L297.2,363.4z M297.3,364l-2,0.7l1.5,0.7L297.3,364z
	 M298.3,366.7l-1.2-0.6l-0.4,1.1L298.3,366.7L298.3,366.7z M296.7,365.9l-1.5-0.7l-0.6,1.4l1.6,0.8L296.7,365.9z M294.6,364.4
	L291,358l1.4,7.2L294.6,364.4L294.6,364.4z M294.7,365l-2,0.7l1.3,0.6L294.7,365z M295.7,367.7l-1.4-0.7l-0.6,1.4L295.7,367.7z
	 M293.8,366.8l-1.3-0.7l-0.7,1.6l1.3,0.8L293.8,366.8z M290.6,358.3l-0.7,7.9l2.1-0.8L290.6,358.3z M289.9,359.6l-2.2,7.3l1.5-0.6
	L289.9,359.6z M292.1,365.9l-2,0.7l1.3,0.8L292.1,365.9z M292.7,368.8l-1-0.6l-0.5,1.2L292.7,368.8L292.7,368.8z M291.2,367.9
	l-1.7-1l-1.8,0.7l2.9,1.8L291.2,367.9z"/>
<path fill="#FFFFFF" d="M318.6,352.6c0.2,0.3,0.2,0.6,0.2,0.9l-0.6,3.7c0,0.3-0.2,0.5-0.4,0.6l-7.2,4.2c-0.2,0.1-0.5,0.1-0.7,0
	l-3.5-1.3c-0.3-0.1-0.5-0.3-0.6-0.6c-0.1-0.3-0.2-0.5-0.2-0.8l1.3-10.7c0-0.3,0.2-0.6,0.4-0.7s0.5-0.1,0.8,0l10,4.2
	C318.3,352.2,318.5,352.4,318.6,352.6L318.6,352.6z M317.9,353.2l-1.7,1l-0.3,2l1.5,0.4L317.9,353.2z M317.2,352.9l-7-3l5.6,3.8
	L317.2,352.9L317.2,352.9z M315.3,354l-6.5-4.4l4.6,5.6L315.3,354L315.3,354z M315.6,354.5l-1.8,1.1l1.6,0.4L315.6,354.5z M317,357
	l-1.3-0.4l-0.2,1.2L317,357L317,357z M315.3,356.5l-1.6-0.5l-0.4,1.5l1.8,0.5L315.3,356.5z M313,355.4l-4.6-5.6l2.6,6.8L313,355.4
	L313,355.4z M313.2,355.9l-1.8,1.1l1.4,0.4L313.2,355.9z M314.6,358.4l-1.4-0.4l-0.3,1.5L314.6,358.4z M312.7,357.9l-1.4-0.4
	l-0.4,1.7l1.4,0.5L312.7,357.9z M307.9,350.1l0.6,7.9l2-1.2L307.9,350.1z M307.6,351.5l-0.9,7.6l1.4-0.8L307.6,351.5z M310.7,357.3
	l-1.8,1.1l1.4,0.6L310.7,357.3z M311.8,360l-1.1-0.4l-0.3,1.3L311.8,360L311.8,360z M310.2,359.4l-1.9-0.7l-1.7,1l3.2,1.2
	L310.2,359.4z"/>
<path fill="#010000" d="M335.5,339.4c0.2,0.3,0.3,0.5,0.3,0.8l0.1,3.8c0,0.3-0.1,0.5-0.3,0.7l-6.3,5.4c-0.2,0.2-0.4,0.2-0.7,0.1
	l-3.7-0.7c-0.3-0.1-0.5-0.2-0.7-0.4c-0.2-0.2-0.3-0.5-0.3-0.8l-0.6-10.8c0-0.3,0.1-0.6,0.3-0.8c0.2-0.2,0.5-0.2,0.8-0.1l10.5,2.4
	C335,339,335.3,339.2,335.5,339.4L335.5,339.4z M334.8,340l-1.5,1.3l0.1,2l1.5,0.2L334.8,340z M334.1,339.8l-7.4-1.7l6.2,2.8
	L334.1,339.8L334.1,339.8z M332.5,341.3l-7.2-3.2l5.5,4.7L332.5,341.3L332.5,341.3z M332.8,341.7l-1.6,1.4l1.7,0.2L332.8,341.7z
	 M334.6,344l-1.3-0.1l0,1.2L334.6,344L334.6,344z M332.8,343.8l-1.7-0.2l-0.1,1.5l1.8,0.2L332.8,343.8z M330.4,343l-5.6-4.8l3.8,6.3
	L330.4,343L330.4,343z M330.6,343.6l-1.6,1.3l1.5,0.1L330.6,343.6z M332.5,345.8l-1.5-0.2l-0.1,1.5L332.5,345.8z M330.5,345.6
	l-1.5-0.2l-0.1,1.7l1.5,0.3L330.5,345.6z M324.5,338.7l2,7.6l1.7-1.5L324.5,338.7z M324.4,340.1l0.5,7.6l1.3-1.1L324.4,340.1z
	 M328.5,345.4l-1.6,1.4l1.5,0.3L328.5,345.4z M330.1,347.8l-1.2-0.2l-0.1,1.3L330.1,347.8L330.1,347.8z M328.4,347.5l-2-0.4
	l-1.5,1.3l3.4,0.7L328.4,347.5z"/>
<path fill="#FFFFFF" d="M349.8,324c0.3,0.2,0.4,0.5,0.5,0.7l0.7,3.7c0.1,0.3,0,0.5-0.1,0.7l-5.3,6.4c-0.2,0.2-0.4,0.3-0.7,0.3
	l-3.8,0c-0.3,0-0.5-0.1-0.8-0.3c-0.2-0.2-0.4-0.4-0.5-0.7l-2.5-10.5c-0.1-0.3,0-0.6,0.1-0.8c0.2-0.2,0.4-0.3,0.8-0.3l10.8,0.5
	C349.4,323.8,349.6,323.9,349.8,324L349.8,324z M349.3,324.8l-1.3,1.5l0.4,2l1.6-0.1L349.3,324.8z M348.6,324.7l-7.6-0.4l6.5,1.7
	L348.6,324.7L348.6,324.7z M347.2,326.4l-7.7-1.9l6.2,3.7L347.2,326.4L347.2,326.4z M347.6,326.8l-1.4,1.6l1.7-0.1L347.6,326.8z
	 M349.8,328.7l-1.3,0.1l0.2,1.2L349.8,328.7L349.8,328.7z M348,328.8l-1.7,0.1l0.2,1.5l1.8-0.1L348,328.8z M345.4,328.5l-6.3-3.7
	l4.8,5.5L345.4,328.5L345.4,328.5z M345.8,329l-1.3,1.6l1.5-0.1L345.8,329z M348,330.8l-1.5,0.1l0.2,1.5L348,330.8z M346,331
	l-1.5,0.1l0.2,1.7l1.5,0L346,331z M338.9,325.3l3.3,7.2l1.5-1.8L338.9,325.3z M339,326.7l1.8,7.4l1.1-1.3L339,326.7z M344,331.1
	l-1.4,1.6l1.5,0L344,331.1z M346,333.3l-1.2,0l0.2,1.3L346,333.3L346,333.3z M344.3,333.3l-2,0l-1.3,1.5l3.4,0.1L344.3,333.3z"/>
<path fill="#010000" d="M144.3,199.9c-0.3-0.2-0.5-0.4-0.6-0.6l-1.4-3.5c-0.1-0.3-0.1-0.5,0-0.7l4.1-7.2c0.1-0.2,0.3-0.3,0.6-0.4
	l3.7-0.6c0.3,0,0.5,0,0.8,0.2c0.3,0.1,0.4,0.3,0.6,0.6l4.3,9.9c0.1,0.3,0.1,0.6,0,0.8s-0.4,0.4-0.7,0.4l-10.7,1.4
	C144.8,200.1,144.6,200.1,144.3,199.9L144.3,199.9z M144.7,199.1l1-1.7l-0.7-1.9l-1.5,0.4L144.7,199.1z M145.4,199l7.5-0.9l-6.7-0.5
	L145.4,199L145.4,199z M146.5,197.1l7.9,0.6l-6.7-2.5L146.5,197.1L146.5,197.1z M146,196.8l1-1.8l-1.6,0.4L146,196.8z M143.5,195.3
	l1.3-0.3l-0.4-1.1L143.5,195.3L143.5,195.3z M145.3,194.9l1.7-0.4l-0.4-1.4l-1.8,0.5L145.3,194.9z M147.9,194.8l6.8,2.6l-5.7-4.6
	L147.9,194.8L147.9,194.8z M147.4,194.4l1-1.8l-1.4,0.4L147.4,194.4z M144.9,192.9l1.5-0.4l-0.4-1.4L144.9,192.9z M146.9,192.4
	l1.4-0.3l-0.5-1.6l-1.5,0.3L146.9,192.4z M154.9,196.8l-4.5-6.5l-1.1,2L154.9,196.8z M154.5,195.4l-3-7l-0.8,1.4L154.5,195.4z
	 M148.8,191.9l1-1.8l-1.5,0.2L148.8,191.9z M146.5,190.1l1.2-0.2l-0.4-1.2L146.5,190.1L146.5,190.1z M148.2,189.9l2-0.3l1-1.7
	l-3.4,0.5L148.2,189.9z"/>
<path fill="#010000" d="M360.9,306.5c0.3,0.2,0.5,0.4,0.6,0.6l1.4,3.5c0.1,0.3,0.1,0.5,0,0.7l-4.1,7.2c-0.1,0.2-0.3,0.3-0.6,0.4
	l-3.7,0.6c-0.3,0-0.5,0-0.8-0.2c-0.3-0.1-0.4-0.3-0.6-0.6l-4.3-9.9c-0.1-0.3-0.1-0.6,0-0.8c0.1-0.2,0.4-0.4,0.7-0.4l10.7-1.4
	C360.4,306.3,360.7,306.3,360.9,306.5L360.9,306.5z M360.5,307.3l-1,1.7l0.7,1.9l1.5-0.4L360.5,307.3z M359.8,307.4l-7.5,0.9
	l6.7,0.5L359.8,307.4L359.8,307.4z M358.8,309.3l-7.9-0.6l6.7,2.5L358.8,309.3L358.8,309.3z M359.2,309.6l-1,1.8l1.6-0.4
	L359.2,309.6z M361.7,311.1l-1.3,0.3l0.4,1.1L361.7,311.1L361.7,311.1z M360,311.5l-1.7,0.4l0.4,1.4l1.8-0.5L360,311.5z
	 M357.4,311.6l-6.8-2.6l5.7,4.6L357.4,311.6L357.4,311.6z M357.8,312l-1,1.8l1.4-0.4L357.8,312z M360.4,313.5l-1.5,0.4l0.4,1.4
	L360.4,313.5z M358.4,314l-1.4,0.3l0.5,1.6l1.5-0.3L358.4,314z M350.4,309.6l4.5,6.5l1.1-2L350.4,309.6z M350.8,311l3,7l0.8-1.4
	L350.8,311z M356.5,314.5l-1,1.8l1.5-0.2L356.5,314.5z M358.8,316.3l-1.2,0.2l0.4,1.2L358.8,316.3L358.8,316.3z M357.1,316.5l-2,0.3
	l-1,1.7l3.4-0.5L357.1,316.5z"/>
<path fill="#FFFFFF" d="M136.7,219.6c-0.3-0.1-0.6-0.3-0.7-0.5l-2-3.2c-0.2-0.2-0.2-0.5-0.1-0.7l2.8-7.8c0.1-0.2,0.3-0.4,0.6-0.5
	l3.6-1.2c0.3-0.1,0.5-0.1,0.8,0c0.3,0.1,0.5,0.3,0.7,0.5l5.9,9c0.2,0.3,0.2,0.5,0.1,0.8c-0.1,0.3-0.3,0.4-0.6,0.5l-10.3,3.2
	C137.3,219.7,137,219.7,136.7,219.6L136.7,219.6z M137,218.7l0.7-1.9l-1-1.7l-1.4,0.6L137,218.7z M137.7,218.5l7.3-2.2l-6.7,0.7
	L137.7,218.5L137.7,218.5z M138.4,216.4l7.8-0.8l-7.1-1.3L138.4,216.4L138.4,216.4z M137.9,216.2l0.7-2l-1.5,0.7L137.9,216.2z
	 M135.1,215.2l1.2-0.5l-0.6-1L135.1,215.2L135.1,215.2z M136.8,214.4l1.6-0.7l-0.7-1.3l-1.7,0.8L136.8,214.4z M139.3,213.8l7.2,1.3
	l-6.4-3.5L139.3,213.8L139.3,213.8z M138.8,213.5l0.7-2l-1.3,0.6L138.8,213.5z M136.1,212.5l1.4-0.6l-0.7-1.3L136.1,212.5z
	 M137.9,211.7l1.4-0.6l-0.8-1.5l-1.4,0.5L137.9,211.7z M146.6,214.7l-5.5-5.6l-0.8,2.2L146.6,214.7z M146,213.4l-4.2-6.3l-0.6,1.6
	L146,213.4z M139.8,210.9l0.7-2l-1.4,0.5L139.8,210.9z M137.2,209.5l1.1-0.4l-0.6-1.2L137.2,209.5L137.2,209.5z M138.8,209l1.9-0.6
	l0.7-1.9l-3.3,1.1L138.8,209z"/>
<path fill="#FFFFFF" d="M368.5,286.8c0.3,0.1,0.6,0.3,0.7,0.5l2,3.2c0.2,0.2,0.2,0.5,0.1,0.7l-2.8,7.8c-0.1,0.2-0.3,0.4-0.6,0.5
	l-3.6,1.2c-0.3,0.1-0.5,0.1-0.8,0c-0.3-0.1-0.5-0.3-0.7-0.5l-5.9-9c-0.2-0.3-0.2-0.5-0.1-0.8c0.1-0.3,0.3-0.4,0.6-0.5l10.3-3.2
	C368,286.7,368.3,286.7,368.5,286.8L368.5,286.8z M368.3,287.7l-0.7,1.9l1,1.7l1.4-0.6L368.3,287.7z M367.6,287.9l-7.3,2.2l6.7-0.7
	L367.6,287.9L367.6,287.9z M366.9,290l-7.8,0.8l7.1,1.3L366.9,290L366.9,290z M367.4,290.2l-0.7,2l1.5-0.7L367.4,290.2z
	 M370.1,291.2l-1.2,0.5l0.6,1L370.1,291.2L370.1,291.2z M368.5,292l-1.6,0.7l0.7,1.3l1.7-0.8L368.5,292z M365.9,292.6l-7.2-1.3
	l6.4,3.5L365.9,292.6L365.9,292.6z M366.5,292.9l-0.7,2l1.3-0.6L366.5,292.9z M369.2,293.9l-1.4,0.6l0.7,1.3L369.2,293.9z
	 M367.3,294.7l-1.4,0.6l0.8,1.5l1.4-0.5L367.3,294.7z M358.7,291.7l5.5,5.6l0.8-2.2L358.7,291.7z M359.3,293.1l4.2,6.3l0.6-1.6
	L359.3,293.1z M365.5,295.5l-0.7,2l1.4-0.5L365.5,295.5z M368.1,296.9l-1.1,0.4l0.6,1.2L368.1,296.9L368.1,296.9z M366.5,297.4
	l-1.9,0.6l-0.7,1.9l3.3-1.1L366.5,297.4z"/>
<path fill="#010000" d="M132.6,240.2c-0.3-0.1-0.6-0.2-0.8-0.4l-2.5-2.8c-0.2-0.2-0.3-0.4-0.2-0.7l1.4-8.2c0-0.2,0.2-0.4,0.5-0.6
	l3.3-1.8c0.2-0.1,0.5-0.2,0.8-0.1c0.3,0,0.5,0.2,0.7,0.4l7.4,7.9c0.2,0.2,0.3,0.5,0.3,0.8s-0.2,0.5-0.5,0.6l-9.6,4.9
	C133.2,240.2,132.9,240.2,132.6,240.2L132.6,240.2z M132.7,239.3l0.3-2l-1.3-1.5l-1.3,0.9L132.7,239.3z M133.4,239l6.8-3.5l-6.5,1.8
	L133.4,239L133.4,239z M133.7,236.8l7.6-2.2l-7.2-0.1L133.7,236.8L133.7,236.8z M133.2,236.7l0.4-2.1l-1.4,0.9L133.2,236.7z
	 M130.3,236.1l1.1-0.7l-0.8-0.9L130.3,236.1L130.3,236.1z M131.8,235.1l1.4-1l-0.9-1.2l-1.5,1L131.8,235.1z M134.2,234.1l7.3,0.1
	l-6.9-2.4L134.2,234.1L134.2,234.1z M133.7,233.9l0.4-2.1l-1.2,0.9L133.7,233.9z M130.8,233.4l1.2-0.8l-0.9-1.2L130.8,233.4z
	 M132.5,232.3l1.2-0.8l-1-1.4l-1.3,0.7L132.5,232.3z M141.5,233.7l-6.4-4.6l-0.4,2.3L141.5,233.7z M140.7,232.5l-5.2-5.5l-0.3,1.6
	L140.7,232.5z M134.1,231.2l0.4-2.1l-1.3,0.7L134.1,231.2z M131.3,230.2l1.1-0.6l-0.8-1L131.3,230.2L131.3,230.2z M132.8,229.4
	l1.7-1l0.3-1.9l-3,1.7L132.8,229.4z"/>
<path fill="#010000" d="M372.6,266.2c0.3,0.1,0.6,0.2,0.8,0.4l2.5,2.8c0.2,0.2,0.3,0.4,0.2,0.7l-1.4,8.2c0,0.2-0.2,0.4-0.5,0.6
	l-3.3,1.8c-0.2,0.1-0.5,0.2-0.8,0.1c-0.3,0-0.5-0.2-0.7-0.4l-7.4-7.9c-0.2-0.2-0.3-0.5-0.3-0.8c0-0.3,0.2-0.5,0.5-0.6l9.6-4.9
	C372.1,266.2,372.3,266.2,372.6,266.2L372.6,266.2z M372.5,267.1l-0.3,2l1.3,1.5l1.3-0.9L372.5,267.1z M371.9,267.4l-6.8,3.5
	l6.5-1.8L371.9,267.4L371.9,267.4z M371.5,269.6l-7.6,2.2l7.2,0.1L371.5,269.6L371.5,269.6z M372.1,269.7l-0.4,2.1l1.4-0.9
	L372.1,269.7z M374.9,270.3l-1.1,0.7l0.8,0.9L374.9,270.3L374.9,270.3z M373.4,271.3l-1.4,1l0.9,1.2l1.5-1L373.4,271.3z
	 M371.1,272.3l-7.3-0.1l6.9,2.4L371.1,272.3L371.1,272.3z M371.6,272.5l-0.4,2.1l1.2-0.9L371.6,272.5z M374.5,273l-1.2,0.8l0.9,1.2
	L374.5,273z M372.8,274.2l-1.2,0.8l1,1.4l1.3-0.7L372.8,274.2z M363.8,272.7l6.4,4.6l0.4-2.3L363.8,272.7z M364.6,273.9l5.2,5.5
	l0.3-1.6L364.6,273.9z M371.1,275.2l-0.4,2.1l1.3-0.7L371.1,275.2z M373.9,276.2l-1.1,0.6l0.8,1L373.9,276.2L373.9,276.2z
	 M372.4,277l-1.7,1l-0.3,1.9l3-1.7L372.4,277z"/>
<path fill="#FFFFFF" d="M132.2,261.2c-0.3,0-0.6-0.1-0.8-0.3l-2.9-2.4c-0.2-0.2-0.4-0.4-0.4-0.6l0-8.3c0-0.3,0.1-0.5,0.4-0.6
	l2.9-2.4c0.2-0.2,0.5-0.3,0.8-0.3c0.3,0,0.6,0.1,0.8,0.2l8.7,6.4c0.3,0.2,0.4,0.4,0.4,0.7c0,0.3-0.1,0.5-0.4,0.7L133,261
	C132.8,261.1,132.5,261.2,132.2,261.2L132.2,261.2z M132.1,260.3l0-2l-1.6-1.2l-1.1,1.1L132.1,260.3z M132.7,259.9l6.1-4.6l-6.1,2.9
	L132.7,259.9L132.7,259.9z M132.7,257.7l7.1-3.5l-7.1,1.2L132.7,257.7L132.7,257.7z M132.1,257.7l0-2.1l-1.2,1.2L132.1,257.7z
	 M129.2,257.6l0.9-0.9l-0.9-0.7L129.2,257.6L129.2,257.6z M130.5,256.4l1.2-1.2l-1.1-1l-1.3,1.3L130.5,256.4z M132.7,255l7.2-1.2
	l-7.2-1.1L132.7,255L132.7,255z M132.1,254.8l0-2.1l-1,1L132.1,254.8z M129.2,254.9l1.1-1l-1.1-1L129.2,254.9z M130.6,253.4l1.1-1
	l-1.2-1.2l-1.2,1L130.6,253.4z M139.8,253.3l-7.1-3.4l0,2.3L139.8,253.3z M138.8,252.2l-6.1-4.5l0,1.7L138.8,252.2z M132.1,252.1
	l0-2.1l-1.2,1L132.1,252.1z M129.2,251.6l0.9-0.8l-0.9-0.9L129.2,251.6L129.2,251.6z M130.5,250.6l1.6-1.3l0-2l-2.7,2.2L130.5,250.6
	z"/>
<path fill="#FFFFFF" d="M373.1,245.2c0.3,0,0.6,0.1,0.8,0.3l2.9,2.4c0.2,0.2,0.4,0.4,0.4,0.6l0,8.3c0,0.3-0.1,0.5-0.4,0.6l-2.9,2.4
	c-0.2,0.2-0.5,0.3-0.8,0.3c-0.3,0-0.6-0.1-0.8-0.2l-8.7-6.4c-0.3-0.2-0.4-0.4-0.4-0.7c0-0.3,0.1-0.5,0.4-0.7l8.6-6.5
	C372.5,245.3,372.8,245.2,373.1,245.2L373.1,245.2z M373.1,246.1l0,2l1.6,1.2l1.1-1.1L373.1,246.1z M372.6,246.5l-6.1,4.6l6.1-2.9
	L372.6,246.5L372.6,246.5z M372.6,248.7l-7.1,3.5l7.1-1.2L372.6,248.7L372.6,248.7z M373.1,248.7l0,2.1l1.2-1.2L373.1,248.7z
	 M376,248.8l-0.9,0.9l0.9,0.7L376,248.8L376,248.8z M374.7,250l-1.2,1.2l1.1,1l1.3-1.3L374.7,250z M372.6,251.4l-7.2,1.2l7.2,1.1
	L372.6,251.4L372.6,251.4z M373.2,251.6l0,2.1l1-1L373.2,251.6z M376.1,251.5l-1.1,1l1.1,1L376.1,251.5z M374.6,253l-1.1,1l1.2,1.2
	l1.2-1L374.6,253z M365.5,253.1l7.1,3.4l0-2.3L365.5,253.1z M366.5,254.2l6.1,4.5l0-1.7L366.5,254.2z M373.2,254.3l0,2.1l1.2-1
	L373.2,254.3z M376.1,254.8l-0.9,0.8l0.9,0.9L376.1,254.8L376.1,254.8z M374.7,255.8l-1.6,1.3l0,2l2.7-2.2L374.7,255.8z"/>
<g>
	<path fill="#010000" d="M318.4,251h1.2l0.6,4.4l0.1,0.6c0,0.3,0.1,0.7,0.1,1l0.1,0.8c0,0,0,0.1,0,0.1c0,0.1,0,0.1,0,0.2l0-0.3
		c0-0.5,0.1-1,0.2-1.5c0.1-0.4,0.1-0.9,0.2-1.2l0.7-4.1h1l0.6,4c0.1,0.6,0.2,1.1,0.2,1.6c0.1,0.5,0.1,1,0.2,1.4
		c0-0.5,0.1-0.9,0.1-1.4c0.1-0.4,0.1-0.9,0.2-1.3l0.1-0.6l0.5-3.7h1.2l-1.7,9.4h-1l-0.7-4.1c0,0,0-0.1,0-0.2c0-0.1,0-0.3-0.1-0.5
		l-0.1-0.9c0-0.1,0-0.2,0-0.3s0-0.3-0.1-0.6l0-0.4c0,0.1,0,0.2,0,0.2c0,0.1,0,0.1,0,0.2c0,0.3,0,0.5-0.1,0.6c0,0.1,0,0.2,0,0.3
		l-0.1,0.9c0,0.2-0.1,0.4-0.1,0.5c0,0.1,0,0.2,0,0.2l-0.7,4.1h-1L318.4,251z"/>
	<path fill="#010000" d="M325.8,251h1.2l0.6,4.4l0.1,0.6c0,0.3,0.1,0.7,0.1,1l0.1,0.8c0,0,0,0.1,0,0.1c0,0.1,0,0.1,0,0.2l0-0.3
		c0-0.5,0.1-1,0.2-1.5c0.1-0.4,0.1-0.9,0.2-1.2l0.7-4.1h1l0.6,4c0.1,0.6,0.2,1.1,0.2,1.6c0.1,0.5,0.1,1,0.2,1.4
		c0-0.5,0.1-0.9,0.1-1.4c0.1-0.4,0.1-0.9,0.2-1.3l0.1-0.6l0.5-3.7h1.2l-1.7,9.4h-1l-0.7-4.1c0,0,0-0.1,0-0.2c0-0.1,0-0.3-0.1-0.5
		l-0.1-0.9c0-0.1,0-0.2,0-0.3s0-0.3-0.1-0.6l0-0.4c0,0.1,0,0.2,0,0.2c0,0.1,0,0.1,0,0.2c0,0.3,0,0.5-0.1,0.6c0,0.1,0,0.2,0,0.3
		l-0.1,0.9c0,0.2-0.1,0.4-0.1,0.5c0,0.1,0,0.2,0,0.2l-0.7,4.1h-1L325.8,251z"/>
	<path fill="#010000" d="M345.6,255.7c0,1.7-0.2,2.9-0.5,3.7c-0.3,0.7-0.9,1.1-1.6,1.1s-1.3-0.4-1.6-1.1c-0.3-0.7-0.5-1.9-0.5-3.7
		c0-1.8,0.2-3,0.5-3.7c0.3-0.7,0.9-1.1,1.6-1.1c0.7,0,1.2,0.3,1.6,1C345.4,252.5,345.6,253.8,345.6,255.7z M344.3,255.7
		c0-1.4-0.1-2.4-0.2-3c-0.1-0.5-0.3-0.8-0.7-0.8c-0.3,0-0.5,0.3-0.7,0.8c-0.1,0.5-0.2,1.5-0.2,2.9s0.1,2.4,0.2,2.9
		c0.1,0.5,0.3,0.8,0.7,0.8c0.3,0,0.5-0.3,0.7-0.8C344.3,258.1,344.3,257.1,344.3,255.7z"/>
	<path fill="#010000" d="M346.7,251h2.1v9.4h-1.2V252h-0.9V251z"/>
</g>
<path fill="#010000" d="M333.5,254.4c0-0.1,0-0.3,0.1-0.4l1-1.3c0.1-0.1,0.2-0.2,0.3-0.2l3.6,0c0.1,0,0.2,0.1,0.3,0.2l1,1.3
	c0.1,0.1,0.1,0.2,0.1,0.3c0,0.1,0,0.2-0.1,0.3l-2.8,3.8c-0.1,0.1-0.2,0.2-0.3,0.2c-0.1,0-0.2-0.1-0.3-0.2l-2.8-3.7
	C333.6,254.7,333.5,254.6,333.5,254.4L333.5,254.4z M333.9,254.4l0.9,0l0.5-0.7l-0.5-0.5L333.9,254.4z M334.1,254.7l2,2.6l-1.3-2.6
	L334.1,254.7L334.1,254.7z M335,254.7l1.5,3.1l-0.5-3.1L335,254.7L335,254.7z M335.1,254.4l0.9,0l-0.5-0.5L335.1,254.4z
	 M335.1,253.1l0.4,0.4l0.3-0.4L335.1,253.1L335.1,253.1z M335.6,253.7l0.5,0.5l0.5-0.5l-0.6-0.6L335.6,253.7z M336.2,254.6l0.5,3.1
	l0.5-3.1L336.2,254.6L336.2,254.6z M336.3,254.4l0.9,0l-0.5-0.5L336.3,254.4z M336.3,253.1l0.5,0.5l0.4-0.5L336.3,253.1z
	 M336.9,253.8l0.4,0.5l0.5-0.5l-0.4-0.5L336.9,253.8z M337,257.7l1.5-3.1l-1,0L337,257.7z M337.4,257.3l2-2.7l-0.7,0L337.4,257.3z
	 M337.5,254.4l0.9,0l-0.4-0.5L337.5,254.4z M337.7,253.1l0.3,0.4l0.4-0.4L337.7,253.1L337.7,253.1z M338.2,253.7l0.5,0.7l0.9,0
	l-0.9-1.2L338.2,253.7z"/>
<g>
	<path fill="#010000" d="M155,250.8h1.2v6h0.6v1h-0.6v2.6H155v-2.6h-2.6v-1.1L155,250.8z M155,256.8v-4.1l-1.6,4.1H155z"/>
	<path fill="#010000" d="M158.9,250.8h3.1v1.1h-2.1l-0.3,2.4h0.2c0.4,0,0.7,0.1,1,0.2c0.3,0.1,0.5,0.3,0.7,0.5s0.4,0.5,0.5,0.9
		c0.1,0.3,0.2,0.7,0.2,1.2c0,1.1-0.2,1.9-0.7,2.6c-0.5,0.6-1.1,0.9-2,0.9c-0.5,0-1-0.1-1.5-0.4l0.3-1.2c0.4,0.2,0.8,0.4,1.1,0.4
		c0.4,0,0.8-0.2,1-0.6c0.2-0.4,0.4-0.9,0.4-1.6c0-1.2-0.5-1.9-1.6-1.9c-0.3,0-0.5,0-0.8,0.1L158.9,250.8z"/>
	<path fill="#010000" d="M166,250.8h1.7c0.7,0,1.2,0.2,1.6,0.5c0.4,0.4,0.7,1.1,0.7,2c0,0.7-0.1,1.2-0.3,1.7c-0.2,0.4-0.6,0.7-1,0.8
		l1.8,4.7h-1.3l-1.8-4.7v4.7H166V250.8z M167.3,255.1c0.5,0,0.9-0.1,1.1-0.4c0.2-0.2,0.3-0.6,0.3-1.2c0-0.3,0-0.6-0.1-0.8
		s-0.1-0.4-0.2-0.5c-0.1-0.1-0.2-0.2-0.4-0.3c-0.1-0.1-0.3-0.1-0.5-0.1h-0.2V255.1z"/>
	<path fill="#010000" d="M171.4,250.8h1.7c0.8,0,1.4,0.2,1.8,0.6c0.4,0.4,0.6,1.1,0.6,2c0,1.3-0.4,2.1-1.1,2.5
		c-0.4,0.2-0.9,0.3-1.6,0.3v4.3h-1.3V250.8z M172.7,255.1c0.5,0,0.9-0.1,1.1-0.3c0.2-0.2,0.3-0.6,0.3-1.2c0-0.6-0.1-1-0.3-1.3
		c-0.2-0.3-0.5-0.4-0.9-0.4h-0.2V255.1z"/>
	<path fill="#010000" d="M177,250.8h1.1l0.9,3.9c0.1,0.5,0.2,1,0.3,1.5c0.1,0.5,0.2,1,0.2,1.6c0-0.1,0-0.1,0-0.2c0,0,0-0.1,0-0.1
		l0.2-1.1l0.2-1.1l0.1-0.7l0.8-3.9h1.1l0.9,9.7h-1.2l-0.2-3.3c0-0.2,0-0.3,0-0.4c0-0.1,0-0.2,0-0.3l-0.1-1.3l0-1.2c0,0,0,0,0-0.1
		c0,0,0-0.1,0-0.1l0,0.2c0,0.2-0.1,0.4-0.1,0.6c0,0.2-0.1,0.3-0.1,0.4l-0.2,0.9l-0.1,0.3l-0.8,4.2H179l-0.8-3.6
		c-0.1-0.5-0.2-1-0.3-1.5c-0.1-0.5-0.2-1-0.2-1.6l-0.4,6.7h-1.2L177,250.8z"/>
</g>
</svg>
