<?xml version="1.0" encoding="utf-8"?>
<!-- Generator: Adobe Illustrator 18.1.1, SVG Export Plug-In . SVG Version: 6.00 Build 0)  -->
<svg version="1.1" id="Layer_1" xmlns="http://www.w3.org/2000/svg" xmlns:xlink="http://www.w3.org/1999/xlink" x="0px" y="0px"
	 viewBox="0 0 283.1 283.1" enable-background="new 0 0 283.1 283.1" xml:space="preserve">
<path fill="#010101" d="M279.7,141.6c0,76.3-61.8,138.1-138.1,138.1c-76.3,0-138.1-61.8-138.1-138.1C3.4,65.3,65.3,3.4,141.6,3.4
	C217.9,3.4,279.7,65.3,279.7,141.6z M141.6,110.3c-17.3,0-31.3,14-31.3,31.3c0,17.3,14,31.3,31.3,31.3c17.3,0,31.3-14,31.3-31.3
	C172.8,124.3,158.8,110.3,141.6,110.3z"/>
<path fill="#171717" d="M141.6,110.3c-17.3,0-31.3,14-31.3,31.3c0,17.3,14,31.3,31.3,31.3c17.3,0,31.3-14,31.3-31.3
	C172.8,124.3,158.8,110.3,141.6,110.3z M272.4,142.7c0,72.7-59,131.7-131.7,131.7C68,274.4,9,215.4,9,142.7C9,70,68,11,140.7,11
	C213.4,11,272.4,70,272.4,142.7z"/>
<linearGradient id="SVGID_1_" gradientUnits="userSpaceOnUse" x1="2.9653" y1="-423.8043" x2="106.9953" y2="-423.8043" gradientTransform="matrix(-0.8343 0.5513 -0.5513 -0.8343 11.793 -148.6709)">
	<stop  offset="0" style="stop-color:#171717"/>
	<stop  offset="8.633447e-02" style="stop-color:#1A191A"/>
	<stop  offset="0.1641" style="stop-color:#202021"/>
	<stop  offset="0.2386" style="stop-color:#2B2B2B"/>
	<stop  offset="0.311" style="stop-color:#383838"/>
	<stop  offset="0.3819" style="stop-color:#4A4949"/>
	<stop  offset="0.4508" style="stop-color:#606060"/>
	<stop  offset="0.5169" style="stop-color:#7B7B7B"/>
	<stop  offset="0.5481" style="stop-color:#686868"/>
	<stop  offset="0.5934" style="stop-color:#525252"/>
	<stop  offset="0.642" style="stop-color:#404040"/>
	<stop  offset="0.6938" style="stop-color:#323232"/>
	<stop  offset="0.7498" style="stop-color:#272727"/>
	<stop  offset="0.8121" style="stop-color:#1F1F1F"/>
	<stop  offset="0.8859" style="stop-color:#191919"/>
	<stop  offset="1" style="stop-color:#171717"/>
</linearGradient>
<path fill="url(#SVGID_1_)" d="M160.4,233l53.7-35.7l37.7,22.7c0,0-17.9,21.8-36.7,33.1c-29.8,17.9-52.6,20.4-52.6,20.4L160.4,233z"
	/>
<linearGradient id="SVGID_2_" gradientUnits="userSpaceOnUse" x1="101.8205" y1="30.1338" x2="193.3099" y2="38.1381">
	<stop  offset="0" style="stop-color:#171717"/>
	<stop  offset="9.733500e-02" style="stop-color:#191919"/>
	<stop  offset="0.1755" style="stop-color:#202020"/>
	<stop  offset="0.2471" style="stop-color:#292929"/>
	<stop  offset="0.3147" style="stop-color:#363636"/>
	<stop  offset="0.3795" style="stop-color:#464646"/>
	<stop  offset="0.4423" style="stop-color:#5A5A5A"/>
	<stop  offset="0.5023" style="stop-color:#747474"/>
	<stop  offset="0.5169" style="stop-color:#7B7B7B"/>
	<stop  offset="0.5481" style="stop-color:#686868"/>
	<stop  offset="0.5934" style="stop-color:#525252"/>
	<stop  offset="0.642" style="stop-color:#404040"/>
	<stop  offset="0.6938" style="stop-color:#323232"/>
	<stop  offset="0.7498" style="stop-color:#272727"/>
	<stop  offset="0.8121" style="stop-color:#1F1F1F"/>
	<stop  offset="0.8859" style="stop-color:#191919"/>
	<stop  offset="1" style="stop-color:#171717"/>
</linearGradient>
<path fill="url(#SVGID_2_)" d="M174.3,55.2l-58.2-0.7l-13-38.3c0,0,19.2-5.4,41.2-5.4c16.9,0,50.4,11.5,50.4,11.5L174.3,55.2z"/>
<g>
	<path fill="#2D2E2D" stroke="#171717" d="M239.5,142.7h-0.2c0,27.2-11,51.8-28.9,69.7c-17.8,17.8-42.5,28.9-69.7,28.9
		c-27.2,0-51.8-11-69.7-28.9c-17.8-17.8-28.9-42.5-28.9-69.7c0-27.2,11-51.8,28.9-69.7c17.8-17.8,42.5-28.9,69.7-28.9
		c27.2,0,51.8,11,69.7,28.9c17.8,17.8,28.9,42.5,28.9,69.7H239.5h0.2c0-54.7-44.3-99-99-99c-54.7,0-99,44.3-99,99
		c0,54.7,44.3,99,99,99c54.7,0,99-44.3,99-99H239.5z"/>
	<path fill="#010101" d="M241,142.7h-0.2c0,27.6-11.2,52.7-29.3,70.8c-18.1,18.1-43.1,29.3-70.8,29.3c-27.6,0-52.7-11.2-70.8-29.3
		c-18.1-18.1-29.3-43.1-29.3-70.8c0-27.6,11.2-52.7,29.3-70.8C88,53.8,113,42.6,140.7,42.6c27.6,0,52.7,11.2,70.8,29.3
		c18.1,18.1,29.3,43.1,29.3,70.8H241h0.2c0-55.5-45-100.5-100.5-100.5c-55.5,0-100.5,45-100.5,100.5c0,55.5,45,100.5,100.5,100.5
		c55.5,0,100.5-45,100.5-100.5H241z"/>
	<path fill="#171717" stroke="#010101" stroke-width="0.25" d="M242.6,142.7h-0.2c0,28.1-11.4,53.5-29.8,71.9
		c-18.4,18.4-43.8,29.8-71.9,29.8c-28.1,0-53.5-11.4-71.9-29.8C50.4,196.2,39,170.8,39,142.7c0-28.1,11.4-53.5,29.8-71.9
		C87.2,52.4,112.6,41,140.7,41c28.1,0,53.5,11.4,71.9,29.8c18.4,18.4,29.8,43.8,29.8,71.9H242.6h0.2c0-56.4-45.7-102.1-102.1-102.1
		c-56.4,0-102.1,45.7-102.1,102.1c0,56.4,45.7,102.1,102.1,102.1c56.4,0,102.1-45.7,102.1-102.1H242.6z"/>
	<path fill="#171717" stroke="#010101" stroke-width="0.25" d="M244.2,142.7h-0.2c0,28.5-11.6,54.3-30.2,73
		c-18.7,18.7-44.5,30.2-73,30.2c-28.5,0-54.3-11.6-73-30.2c-18.7-18.7-30.2-44.5-30.2-73c0-28.5,11.6-54.3,30.2-73
		c18.7-18.7,44.5-30.2,73-30.2c28.5,0,54.3,11.6,73,30.2c18.7,18.7,30.2,44.5,30.2,73H244.2h0.2C244.4,85.4,198,39,140.7,39
		C83.4,39,37,85.4,37,142.7c0,57.3,46.4,103.7,103.7,103.7c57.3,0,103.7-46.4,103.7-103.7H244.2z"/>
	<path fill="#010101" d="M245.7,142.7h-0.2c0,28.9-11.7,55.1-30.7,74.1c-19,19-45.2,30.7-74.1,30.7c-28.9,0-55.1-11.7-74.1-30.7
		c-19-19-30.7-45.2-30.7-74.1c0-28.9,11.7-55.1,30.7-74.1c19-19,45.2-30.7,74.1-30.7c28.9,0,55.1,11.7,74.1,30.7
		c19,19,30.7,45.2,30.7,74.1H245.7h0.2c0-58.1-47.1-105.2-105.2-105.2c-58.1,0-105.2,47.1-105.2,105.2
		c0,58.1,47.1,105.2,105.2,105.2c58.1,0,105.2-47.1,105.2-105.2H245.7z"/>
	<path fill="#171717" stroke="#404040" stroke-width="0.25" d="M247.3,142.7h-0.2c0,29.4-11.9,56-31.2,75.2
		c-19.3,19.3-45.8,31.2-75.2,31.2c-29.4,0-56-11.9-75.2-31.2c-19.3-19.3-31.2-45.8-31.2-75.2c0-29.4,11.9-56,31.2-75.2
		c19.3-19.3,45.8-31.2,75.2-31.2c29.4,0,56,11.9,75.2,31.2c19.3,19.3,31.2,45.8,31.2,75.2H247.3h0.2c0-59-47.8-106.8-106.8-106.8
		c-59,0-106.8,47.8-106.8,106.8c0,59,47.8,106.8,106.8,106.8c59,0,106.8-47.8,106.8-106.8H247.3z"/>
	<path fill="#171717" stroke="#010101" stroke-width="0.25" d="M248.9,142.7h-0.2c0,29.8-12.1,56.8-31.6,76.3
		c-19.5,19.5-46.5,31.6-76.3,31.6c-29.8,0-56.8-12.1-76.3-31.6c-19.5-19.5-31.6-46.5-31.6-76.3c0-29.8,12.1-56.8,31.6-76.3
		c19.5-19.5,46.5-31.6,76.3-31.6c29.8,0,56.8,12.1,76.3,31.6c19.5,19.5,31.6,46.5,31.6,76.3H248.9h0.2
		c0-59.9-48.5-108.4-108.4-108.4c-59.9,0-108.4,48.5-108.4,108.4c0,59.9,48.5,108.4,108.4,108.4c59.9,0,108.4-48.5,108.4-108.4
		H248.9z"/>
	<path fill="#010101" d="M250.4,142.7h-0.2c0,30.2-12.3,57.6-32.1,77.4c-19.8,19.8-47.2,32.1-77.4,32.1c-30.2,0-57.6-12.3-77.4-32.1
		c-19.8-19.8-32.1-47.2-32.1-77.4c0-30.2,12.3-57.6,32.1-77.4c19.8-19.8,47.2-32.1,77.4-32.1c30.2,0,57.6,12.3,77.4,32.1
		c19.8,19.8,32.1,47.2,32.1,77.4H250.4h0.2c0-60.7-49.2-109.9-109.9-109.9C80,32.8,30.7,82,30.7,142.7
		c0,60.7,49.2,109.9,109.9,109.9c60.7,0,109.9-49.2,109.9-109.9H250.4z"/>
	<path fill="#171717" stroke="#010101" stroke-width="0.25" d="M252,142.7h-0.2c0,30.7-12.4,58.4-32.5,78.5
		c-20.1,20.1-47.9,32.5-78.5,32.5c-30.7,0-58.4-12.4-78.5-32.5c-20.1-20.1-32.5-47.9-32.5-78.5c0-30.7,12.4-58.4,32.5-78.6
		c20.1-20.1,47.9-32.5,78.5-32.5c30.7,0,58.4,12.4,78.5,32.5c20.1,20.1,32.5,47.9,32.5,78.6H252h0.2c0-61.6-49.9-111.5-111.5-111.5
		c-61.6,0-111.5,49.9-111.5,111.5c0,61.6,49.9,111.5,111.5,111.5c61.6,0,111.5-49.9,111.5-111.5H252z"/>
	<path fill="#171717" stroke="#010101" stroke-width="0.25" d="M253.6,142.7h-0.2c0,31.1-12.6,59.3-33,79.7
		c-20.4,20.4-48.5,33-79.7,33c-31.1,0-59.3-12.6-79.7-33c-20.4-20.4-33-48.5-33-79.7c0-31.1,12.6-59.3,33-79.7
		c20.4-20.4,48.5-33,79.7-33c31.1,0,59.3,12.6,79.7,33c20.4,20.4,33,48.5,33,79.7H253.6h0.2c0-62.5-50.6-113.1-113.1-113.1
		c-62.5,0-113.1,50.6-113.1,113.1c0,62.5,50.6,113.1,113.1,113.1c62.5,0,113.1-50.6,113.1-113.1H253.6z"/>
	<path fill="#010101" stroke="#010101" stroke-width="0.5" d="M255.1,142.7h-0.2c0,31.5-12.8,60.1-33.5,80.8
		c-20.7,20.7-49.2,33.5-80.8,33.5c-31.5,0-60.1-12.8-80.8-33.5c-20.7-20.7-33.5-49.2-33.5-80.8c0-31.5,12.8-60.1,33.5-80.8
		c20.7-20.7,49.2-33.5,80.8-33.5c31.5,0,60.1,12.8,80.8,33.5c20.7,20.7,33.5,49.2,33.5,80.8H255.1h0.2
		c0-63.3-51.3-114.7-114.6-114.7C77.4,28.1,26,79.4,26,142.7c0,63.3,51.3,114.6,114.6,114.6c63.3,0,114.6-51.3,114.6-114.6H255.1z"
		/>
	<path fill="#404040" stroke="#010101" d="M256.7,142.7h-0.2c0,32-13,60.9-33.9,81.9c-21,21-49.9,33.9-81.9,33.9
		c-32,0-60.9-13-81.9-33.9c-21-21-33.9-49.9-33.9-81.9c0-32,13-60.9,33.9-81.9c21-21,49.9-33.9,81.9-33.9c32,0,60.9,13,81.9,33.9
		c21,21,33.9,49.9,33.9,81.9H256.7h0.2c0-64.2-52-116.2-116.2-116.2c-64.2,0-116.2,52-116.2,116.2c0,64.2,52,116.2,116.2,116.2
		c64.2,0,116.2-52,116.2-116.2H256.7z"/>
	<path fill="#171717" stroke="#010101" stroke-width="0.25" d="M258.3,142.7H258c0,32.4-13.1,61.7-34.4,83
		c-21.2,21.2-50.6,34.4-83,34.4c-32.4,0-61.7-13.1-83-34.4c-21.2-21.2-34.4-50.6-34.4-83c0-32.4,13.1-61.7,34.4-83
		c21.2-21.2,50.6-34.4,83-34.4c32.4,0,61.7,13.1,83,34.4c21.2,21.2,34.4,50.6,34.4,83H258.3h0.2c0-65.1-52.7-117.8-117.8-117.8
		c-65.1,0-117.8,52.7-117.8,117.8c0,65,52.7,117.8,117.8,117.8c65,0,117.8-52.7,117.8-117.8H258.3z"/>
	<path fill="#171717" stroke="#010101" stroke-width="0.25" d="M259.8,142.7h-0.2c0,32.8-13.3,62.6-34.8,84.1
		c-21.5,21.5-51.3,34.8-84.1,34.8c-32.8,0-62.6-13.3-84.1-34.8c-21.5-21.5-34.8-51.3-34.8-84.1c0-32.8,13.3-62.6,34.8-84.1
		c21.5-21.5,51.3-34.8,84.1-34.8c32.8,0,62.6,13.3,84.1,34.8c21.5,21.5,34.8,51.3,34.8,84.1H259.8h0.2
		c0-65.9-53.4-119.4-119.3-119.4c-65.9,0-119.4,53.4-119.4,119.4c0,65.9,53.4,119.3,119.4,119.3c65.9,0,119.3-53.4,119.3-119.3
		H259.8z"/>
	<path fill="#010101" d="M261.4,142.7h-0.2c0,33.3-13.5,63.4-35.3,85.2c-21.8,21.8-51.9,35.3-85.2,35.3c-33.3,0-63.4-13.5-85.2-35.3
		c-21.8-21.8-35.3-51.9-35.3-85.2c0-33.3,13.5-63.4,35.3-85.2c21.8-21.8,51.9-35.3,85.2-35.3c33.3,0,63.4,13.5,85.2,35.3
		c21.8,21.8,35.3,51.9,35.3,85.2H261.4h0.2c0-66.8-54.1-120.9-120.9-120.9c-66.8,0-120.9,54.1-120.9,120.9
		c0,66.8,54.1,120.9,120.9,120.9c66.8,0,120.9-54.1,120.9-120.9H261.4z"/>
	<path fill="#171717" stroke="#010101" stroke-width="0.25" d="M263,142.7h-0.2c0,33.7-13.7,64.2-35.7,86.3
		c-22.1,22.1-52.6,35.8-86.3,35.8c-33.7,0-64.2-13.7-86.3-35.8c-22.1-22.1-35.7-52.6-35.7-86.3c0-33.7,13.7-64.2,35.7-86.3
		c22.1-22.1,52.6-35.7,86.3-35.7c33.7,0,64.2,13.7,86.3,35.7c22.1,22.1,35.7,52.6,35.7,86.3H263h0.2c0-67.6-54.8-122.5-122.5-122.5
		C73,20.2,18.2,75.1,18.2,142.7c0,67.6,54.8,122.5,122.5,122.5c67.6,0,122.5-54.8,122.5-122.5H263z"/>
	<path fill="#010101" stroke="#010101" stroke-width="0.5" d="M264.5,142.7h-0.2c0,34.1-13.8,65-36.2,87.4
		c-22.4,22.4-53.3,36.2-87.4,36.2s-65-13.8-87.4-36.2c-22.4-22.4-36.2-53.3-36.2-87.4c0-34.1,13.8-65,36.2-87.4
		c22.4-22.4,53.3-36.2,87.4-36.2c34.1,0,65,13.8,87.4,36.2c22.4,22.4,36.2,53.3,36.2,87.4H264.5h0.2c0-68.5-55.5-124.1-124.1-124.1
		c-68.5,0-124.1,55.5-124.1,124.1c0,68.5,55.5,124.1,124.1,124.1c68.5,0,124.1-55.5,124.1-124.1H264.5z"/>
	<path fill="#171717" stroke="#010101" stroke-width="0.25" d="M266.1,142.7h-0.2c0,34.6-14,65.9-36.7,88.5
		c-22.7,22.7-54,36.7-88.5,36.7c-34.6,0-65.9-14-88.5-36.7c-22.7-22.7-36.7-54-36.7-88.5c0-34.6,14-65.9,36.7-88.5
		c22.7-22.7,54-36.7,88.5-36.7c34.6,0,65.9,14,88.5,36.7c22.7,22.7,36.7,54,36.7,88.5H266.1h0.2c0-69.4-56.2-125.6-125.6-125.6
		S15.1,73.3,15.1,142.7c0,69.4,56.2,125.6,125.6,125.6s125.6-56.2,125.6-125.6H266.1z"/>
	<path fill="#010101" stroke="#282828" stroke-width="0.25" d="M267.7,142.7h-0.2c0,35-14.2,66.7-37.1,89.6
		c-22.9,22.9-54.6,37.1-89.6,37.1c-35,0-66.7-14.2-89.6-37.1c-22.9-22.9-37.1-54.6-37.1-89.6c0-35,14.2-66.7,37.1-89.6
		c22.9-22.9,54.6-37.1,89.6-37.1c35,0,66.7,14.2,89.6,37.1c22.9,22.9,37.1,54.6,37.1,89.6H267.7h0.2c0-70.2-56.9-127.2-127.2-127.2
		c-70.2,0-127.2,56.9-127.2,127.2c0,70.2,56.9,127.2,127.2,127.2c70.2,0,127.2-56.9,127.2-127.2H267.7z"/>
	<path fill="#171717" stroke="#282828" stroke-width="0.25" d="M269.2,142.7H269c0,35.4-14.4,67.5-37.6,90.7
		c-23.2,23.2-55.3,37.6-90.7,37.6c-35.4,0-67.5-14.4-90.7-37.6c-23.2-23.2-37.6-55.3-37.6-90.7c0-35.4,14.4-67.5,37.6-90.7
		c23.2-23.2,55.3-37.6,90.7-37.6c35.4,0,67.5,14.4,90.7,37.6c23.2,23.2,37.6,55.3,37.6,90.7H269.2h0.2
		c0-71.1-57.6-128.8-128.8-128.8c-71.1,0-128.8,57.6-128.8,128.8c0,71.1,57.6,128.8,128.8,128.8c71.1,0,128.8-57.6,128.8-128.8
		H269.2z"/>
	<path fill="#010101" d="M270.8,142.7h-0.2c0,35.9-14.5,68.3-38,91.9c-23.5,23.5-56,38-91.8,38c-35.9,0-68.3-14.5-91.9-38
		c-23.5-23.5-38-56-38-91.9c0-35.9,14.5-68.3,38-91.9c23.5-23.5,56-38,91.9-38c35.9,0,68.3,14.5,91.8,38c23.5,23.5,38,56,38,91.9
		H270.8h0.2c0-72-58.3-130.3-130.3-130.3c-72,0-130.3,58.3-130.3,130.3c0,72,58.3,130.3,130.3,130.3c72,0,130.3-58.3,130.3-130.3
		H270.8z"/>
	<path fill="#010101" d="M272.4,142.7h-0.2c0,36.3-14.7,69.2-38.5,93c-23.8,23.8-56.7,38.5-93,38.5c-36.3,0-69.2-14.7-93-38.5
		c-23.8-23.8-38.5-56.7-38.5-93c0-36.3,14.7-69.2,38.5-93c23.8-23.8,56.7-38.5,93-38.5c36.3,0,69.2,14.7,93,38.5
		c23.8,23.8,38.5,56.7,38.5,93H272.4h0.2c0-72.8-59-131.9-131.9-131.9C67.9,10.8,8.8,69.9,8.8,142.7c0,72.8,59.1,131.9,131.9,131.9
		c72.8,0,131.9-59.1,131.9-131.9H272.4z"/>
</g>
<path fill="#010101" d="M141.6,110.3c-17.3,0-31.3,14-31.3,31.3c0,17.3,14,31.3,31.3,31.3c17.3,0,31.3-14,31.3-31.3
	C172.8,124.3,158.8,110.3,141.6,110.3z M234.6,142.1c0,51.2-41.5,92.7-92.7,92.7c-51.2,0-92.7-41.5-92.7-92.7
	c0-51.2,41.5-92.7,92.7-92.7C193.1,49.4,234.6,90.9,234.6,142.1z"/>
<linearGradient id="SVGID_3_" gradientUnits="userSpaceOnUse" x1="130.3163" y1="58.2935" x2="160.6141" y2="60.9442">
	<stop  offset="0" style="stop-color:#010101"/>
	<stop  offset="0.1409" style="stop-color:#0A0B0A"/>
	<stop  offset="0.3721" style="stop-color:#1C1C1C"/>
	<stop  offset="0.5169" style="stop-color:#272626"/>
	<stop  offset="0.657" style="stop-color:#1C1C1C"/>
	<stop  offset="0.8693" style="stop-color:#0A0A0A"/>
	<stop  offset="1" style="stop-color:#010101"/>
</linearGradient>
<path fill="url(#SVGID_3_)" d="M153.7,69.8c0,0-4.6-0.9-9.2-1c-4.7-0.1-8.1,0.1-8.1,0.1L131,50c0,0,7.4-0.4,14.4-0.4
	c5.4,0,16,1.9,16,1.9L153.7,69.8z"/>
<path fill="#DFAF49" d="M191.4,88.5L162,117.9c6.6,5.7,10.8,14.2,10.8,23.6c0,17.3-14,31.3-31.3,31.3c-17.3,0-31.3-14-31.3-31.3
	c0-9.6,4.3-18.2,11.1-23.9L92,88.2c-14.5,13.4-23.5,32.5-23.5,53.7c0,40.4,32.7,73.1,73.1,73.1c40.4,0,73.1-32.7,73.1-73.1
	C214.6,120.8,205.7,101.8,191.4,88.5z"/>
<g>
	<path fill="none" stroke="#000000" stroke-width="0.75" stroke-miterlimit="10" d="M89.4,99.8c-9.1,11.4-14.7,25.8-14.8,41.5
		c-0.3,37.1,29.6,67.5,66.7,67.8s67.5-29.6,67.8-66.7c0.1-16.3-5.5-31.2-15-42.9"/>
	<g>
		<path d="M89,100.4l0.6,1.6l0.1,0l0.8-2.5c0.4-0.8,0.8-1.5,1.2-2.3c-0.7,0.5-1.4,1.1-2,1.6l-2.3,1.2l0,0.1L89,100.4z"/>
	</g>
	<g>
		<polygon points="194,99.7 192,100.1 191.7,99.7 193.7,99.4 193.4,99 191.4,99.4 191.1,99 193.1,98.7 192.8,98.3 190.8,98.7 
			190.5,98.3 192.5,97.9 192.2,97.6 192.5,97.3 192.8,97.7 193.5,95.8 193.8,96.2 193.1,98 193.4,98.4 194.1,96.5 194.4,96.9 
			193.7,98.7 194,99.1 194.7,97.2 195,97.6 194.3,99.5 		"/>
	</g>
</g>
<g>
	<g id="XMLID_2_">
		<g>
			<path fill="#FFFFFF" d="M134.9,74.3c0.4-0.2,0.8-0.1,1,0.4l1.3,3.6c0.2,0.4,0.3,0.8,0.3,0.8c0,0-0.3-0.3-0.5-0.6l-2.3-3
				C134.3,75.1,134.4,74.6,134.9,74.3L134.9,74.3z"/>
			<path fill="#FFFFFF" d="M147.1,74.7c0.2-0.4,0.6-0.6,1-0.4l0.1,0c0.4,0.2,0.5,0.7,0.2,1l-2.3,3c-0.3,0.3-0.5,0.6-0.5,0.6
				c0,0,0.1-0.4,0.3-0.8L147.1,74.7z"/>
			<path fill="#DFAF49" d="M141.7,77.9c-0.1,0.4-0.1,0.8-0.2,0.8s-0.1-0.4-0.2-0.8l-0.4-2.8c-0.1-0.4,0.2-0.8,0.6-0.8
				c0.4,0,0.6,0.4,0.6,0.8L141.7,77.9z"/>
			<path fill="#DFAF49" d="M152.4,79.2l-1.6,1.2c-0.4,0.3-0.7,0.5-0.7,0.5c0,0,0.2-0.3,0.5-0.7l1.2-1.6c0.3-0.4,0.7-0.5,0.9-0.2
				C152.9,78.6,152.7,79,152.4,79.2z"/>
			<path fill="#DFAF49" d="M132.2,80.4l-1.6-1.2c-0.4-0.3-0.5-0.7-0.2-0.9c0.2-0.2,0.6-0.1,0.9,0.2l1.2,1.6c0.3,0.4,0.5,0.7,0.5,0.7
				C132.9,80.9,132.6,80.7,132.2,80.4z"/>
			<polygon fill="#DFAF49" points="139.2,82.5 141.1,84.6 139.6,86.4 137.8,84.4 			"/>
			<polygon fill="#DFAF49" points="144.2,82.5 145.6,84.4 143.8,86.4 142.3,84.6 			"/>
			<polygon fill="#DFAF49" points="145,82.5 147.5,82.5 146.2,84 			"/>
			<polygon fill="#DFAF49" points="140.1,82.5 143.3,82.5 141.7,84.3 			"/>
			<polygon fill="#DFAF49" points="135.9,82.5 138.4,82.5 137.2,84 			"/>
			<polygon fill="#DFAF49" points="135.1,82.6 136.7,84.4 134.8,86.9 131.8,86.9 			"/>
			<polygon fill="#DFAF49" points="148.3,82.6 151.6,86.9 148.6,86.9 146.7,84.4 			"/>
			<path fill="#FFFFFF" d="M129.3,82.7l0.6,0.4c0.4,0.3,0.7,0.5,0.7,0.5c0,0-0.4-0.1-0.8-0.2l-0.7-0.2c-0.4-0.1-0.7-0.4-0.6-0.6
				C128.5,82.3,128.9,82.4,129.3,82.7z"/>
			<path fill="#FFFFFF" d="M153.4,83.4c-0.4,0.1-0.8,0.2-0.8,0.2c0,0,0.3-0.2,0.7-0.5l0.6-0.4c0.4-0.3,0.8-0.3,0.8-0.1
				c0.1,0.2-0.2,0.5-0.6,0.6L153.4,83.4z"/>
			<polygon fill="#DFAF49" points="137.3,84.9 139,86.9 135.8,86.9 			"/>
			<polygon fill="#DFAF49" points="146.1,84.9 147.6,86.9 144.4,86.9 			"/>
			<polygon fill="#DFAF49" points="141.7,85.1 143.3,86.9 140.1,86.9 			"/>
			<polygon fill="#DFAF49" points="144.2,87.9 147.7,87.9 142.5,99.5 			"/>
			<polygon fill="#DFAF49" points="139.9,87.9 143.5,87.9 141.7,99.6 			"/>
			<polygon fill="#DFAF49" points="135.7,87.9 139.2,87.9 141,99.5 			"/>
			<path fill="#DFAF49" d="M144.1,97.8l4.5-9.8h2.5l-4.5,6.3c0,0-0.1,0.1-0.1,0.1L144.1,97.8z"/>
			<path fill="#DFAF49" d="M134.9,87.9l4.5,9.8l-0.6-0.8l-1.8-2.6c0,0-0.1-0.1-0.1-0.1l-4.5-6.3H134.9z"/>
			<path fill="#FFFFFF" d="M144.4,86.9h3.2l-1.5-1.9L144.4,86.9z M140.1,86.9h3.2l-1.6-1.7L140.1,86.9z M135.8,86.9h3.2l-1.8-1.9
				L135.8,86.9z M137.2,84l1.1-1.5h-2.5L137.2,84z M140.1,82.5l1.6,1.7l1.6-1.7H140.1z M139.2,82.5l-1.4,1.9l1.8,2l1.6-1.7
				L139.2,82.5z M145.6,84.4l-1.4-1.9l-1.9,2.1l1.6,1.7L145.6,84.4z M146.7,84.4l1.9,2.5h3l-3.3-4.3L146.7,84.4z M134.8,86.9
				l1.9-2.5l-1.6-1.8l-3.3,4.3H134.8z M143.5,87.9h-3.5l1.8,11.7L143.5,87.9z M123,103c0.2,0.3,0.6,0.3,0.8,0l6.8-9.6
				c0.2-0.3,0.6-0.3,0.8,0l7.4,10.5c0.2,0.3,0.6,0.3,0.8,0l1-1.4l-5.1-7.2c0-0.1-0.1-0.1-0.1-0.2l-4.8-6.8c-0.2-0.4-0.4-0.8-0.4-1.2
				c0-0.5,0.1-1,0.4-1.3l3.6-4.8c0.3-0.4,0.6-0.6,1-0.6H148c0.4,0,0.7,0.2,1,0.6l3.6,4.8c0.3,0.4,0.4,0.8,0.4,1.3
				c0,0.5-0.1,0.9-0.4,1.3l-4.8,6.8c0,0.1-0.1,0.1-0.1,0.2l-5.1,7.2l1,1.4c0.2,0.3,0.6,0.3,0.8,0l7.4-10.5c0.2-0.3,0.6-0.3,0.9,0
				l6.8,9.6c0.2,0.3,0.6,0.3,0.8,0l4.8-7c0.2-0.3,0.1-0.8-0.3-0.8h-1.1c-0.4,0-0.6,0-0.6-0.4v-0.2c0-0.4,0.2-0.8,0.6-0.8h6.9
				c0.4,0,0.8,0.4,0.8,0.8v0.2c0,0.4-0.4,0.4-0.8,0.4h-1c-0.4,0-0.9,0.4-1.2,0.8l-7.5,10.9c-0.2,0.3-0.6,0.3-0.9,0l-7.4-10.5
				c-0.2-0.3-0.6-0.3-0.9,0l-7.4,10.5c-0.2,0.3-0.6,0.3-0.8,0l-2-2.8l-2,2.8c-0.2,0.3-0.6,0.3-0.8,0l-7.4-10.5
				c-0.2-0.3-0.6-0.3-0.8,0l-7.4,10.5c-0.2,0.3-0.6,0.3-0.9,0l-7.5-10.8c-0.2-0.3-0.8-0.8-1.2-0.8h-1c-0.4,0-0.8,0-0.8-0.4v-0.2
				c0-0.4,0.4-0.8,0.8-0.8h6.9c0.4,0,0.6,0.4,0.6,0.8v0.2c0,0.4-0.2,0.4-0.6,0.4h-1.1c-0.4,0-0.5,0.4-0.3,0.8L123,103z M141,99.5
				l-1.7-11.5h-3.5L141,99.5z M144.2,87.9l-1.7,11.5l5.2-11.5H144.2z M139.4,97.8l-4.5-9.8h-2.5l4.5,6.3c0,0,0.1,0.1,0.1,0.1
				l1.8,2.6L139.4,97.8z M148.5,87.9l-4.5,9.8l2.4-3.4c0,0,0.1-0.1,0.1-0.1l4.5-6.3H148.5z M160.8,103.6c-0.2,0.3-0.4,0.7-0.3,0.8
				c0.1,0.1,0.3-0.1,0.5-0.4l5.5-7.9c0.2-0.3,0.3-0.6,0.1-0.6s-0.5,0.3-0.7,0.6L160.8,103.6z M147.5,82.5H145l1.1,1.5L147.5,82.5z
				 M122.9,104.4c0.1-0.1-0.1-0.4-0.3-0.8l-5.2-7.5c-0.2-0.3-0.5-0.6-0.7-0.6s-0.1,0.3,0.1,0.6l5.5,7.9
				C122.6,104.2,122.8,104.4,122.9,104.4z"/>
			<path fill="#DFAF49" d="M122.6,103.6c0.2,0.3,0.4,0.7,0.3,0.8c-0.1,0.1-0.3-0.1-0.5-0.4l-5.5-7.9c-0.2-0.3-0.3-0.6-0.1-0.6
				s0.5,0.3,0.7,0.6L122.6,103.6z"/>
			<path fill="#DFAF49" d="M161,103.9c-0.2,0.3-0.5,0.5-0.5,0.4c-0.1-0.1,0.1-0.4,0.3-0.8l5.2-7.5c0.2-0.3,0.5-0.6,0.7-0.6
				s0.1,0.3-0.1,0.6L161,103.9z"/>
		</g>
		<g>
		</g>
	</g>
</g>
<g>
	<path d="M128.5,183.4l-0.3,1.9c0,0,0,0.1,0,0.1c0,0,0,0.1,0,0.1c0,0.2,0,0.3,0.1,0.4c0.1,0.1,0.1,0.2,0.2,0.3
		c-0.1,0.1-0.3,0.2-0.4,0.3c-0.1,0.1-0.2,0.3-0.2,0.5l-0.3,1.4h0.7v1.9h-2.1v-1.9h0.4l-0.8-4.6l-0.8,4.6h0.5v1.9h-2.1v-1.9h0.6
		l-0.2-1.4c0-0.2-0.1-0.4-0.2-0.6c-0.1-0.1-0.2-0.2-0.4-0.3c0.1-0.1,0.2-0.1,0.2-0.3c0.1-0.1,0.1-0.3,0.1-0.4c0,0,0-0.1,0-0.1
		c0,0,0-0.1,0-0.2l-0.3-1.8h-0.8v-1.9h2.1v1.9h-0.7l0.8,4.6l0.8-4.6h-0.5v-1.9h2.1v1.9h-0.6l0.8,4.6l0.8-4.6h-0.7v-1.9h2.1v1.9
		H128.5z"/>
	<path fill="#FFFFFF" d="M129.7,191.1v-1.9h0.8V188c0-0.3,0-0.5-0.1-0.6c-0.1-0.2-0.2-0.3-0.3-0.4c0.1-0.1,0.3-0.2,0.3-0.3
		s0.1-0.4,0.1-0.6v-1.8h-0.8v-1.9h4.6v3h-0.6V185c0-0.2,0-0.4-0.1-0.6c-0.1-0.1-0.2-0.2-0.4-0.2H131v2.5h2.5v0.6H131v1.9h2.1
		c0.2,0,0.3-0.1,0.4-0.2c0.1-0.1,0.1-0.3,0.1-0.6v-0.4h0.6v3H129.7z"/>
	<path d="M138.9,189.2c-0.1,0.2-0.2,0.4-0.3,0.6c-0.1,0.2-0.3,0.3-0.5,0.4c-0.2,0.1-0.4,0.1-0.6,0.1h-2.6v-3h0.6v0.4
		c0,0.2,0.1,0.4,0.2,0.6c0.1,0.1,0.2,0.2,0.4,0.2h1.9c0.2,0,0.3-0.1,0.4-0.2c0.1-0.1,0.2-0.3,0.2-0.6c0-0.2,0-0.3-0.1-0.5
		c-0.1-0.2-0.2-0.3-0.3-0.4c-0.1-0.1-0.3-0.2-0.4-0.3c-0.2-0.1-0.3-0.1-0.5-0.1c-0.2,0-0.3,0.1-0.5,0.2c0-0.2,0-0.3-0.1-0.4
		c-0.1-0.1-0.2-0.2-0.3-0.3s-0.3-0.2-0.4-0.3c-0.2-0.1-0.3-0.2-0.4-0.3c-0.1-0.1-0.2-0.3-0.3-0.4c-0.1-0.2-0.1-0.4-0.1-0.6v-0.8
		c0-0.3,0-0.5,0.1-0.8c0.1-0.2,0.2-0.4,0.3-0.6c0.1-0.2,0.3-0.3,0.5-0.4c0.2-0.1,0.4-0.1,0.6-0.1h2.6v3.1h-0.6v-0.4
		c0-0.2-0.1-0.4-0.2-0.6c-0.1-0.1-0.2-0.2-0.4-0.2H136c-0.2,0-0.3,0.1-0.4,0.2c-0.1,0.1-0.2,0.3-0.2,0.6c0,0.1,0,0.3,0.1,0.4
		c0.1,0.1,0.2,0.2,0.3,0.3s0.2,0.2,0.4,0.2c0.1,0.1,0.3,0.1,0.4,0.1c0.1,0,0.2,0,0.3,0s0.2-0.1,0.2-0.1c0,0.1,0,0.3,0.1,0.4
		c0.1,0.1,0.1,0.2,0.2,0.3c0.1,0.1,0.2,0.2,0.3,0.2c0.1,0.1,0.2,0.1,0.4,0.2c0.1,0.1,0.2,0.2,0.4,0.2c0.1,0.1,0.2,0.2,0.3,0.3
		c0.1,0.1,0.2,0.3,0.2,0.4c0.1,0.2,0.1,0.4,0.1,0.6v0.8C139.1,188.8,139,189,138.9,189.2z"/>
	<path fill="#FFFFFF" d="M143.6,185.4V185c0-0.2-0.1-0.4-0.2-0.6c-0.1-0.1-0.2-0.2-0.4-0.2h-0.9v1.8c0,0.3,0,0.5,0.1,0.6
		c0.1,0.2,0.2,0.3,0.3,0.3c-0.1,0.1-0.2,0.2-0.3,0.4c-0.1,0.2-0.1,0.4-0.1,0.6v1.3h0.8v1.9h-2.1v-1.9h0.7V188c0-0.3,0-0.5-0.1-0.6
		c-0.1-0.2-0.2-0.3-0.3-0.4c0.1-0.1,0.3-0.2,0.3-0.3c0.1-0.2,0.1-0.4,0.1-0.6v-1.8h-0.9c-0.2,0-0.3,0.1-0.4,0.2s-0.2,0.3-0.2,0.6
		v0.4h-0.6v-3h4.7v3H143.6z"/>
	<path d="M144.7,190.4v-1.9h0.8v-1.3c0-0.3,0-0.5-0.1-0.6c-0.1-0.2-0.2-0.3-0.3-0.4c0.1-0.1,0.3-0.2,0.3-0.3
		c0.1-0.2,0.1-0.4,0.1-0.6v-1.8h-0.8v-1.9h4.6v3.1h-0.6v-0.4c0-0.2,0-0.4-0.1-0.6s-0.2-0.2-0.4-0.2h-2.1v2.5h2.5v0.6h-2.5v1.9h2.1
		c0.2,0,0.3-0.1,0.4-0.2s0.1-0.3,0.1-0.6v-0.4h0.6v3H144.7z"/>
	<path fill="#FFFFFF" d="M154.3,191.1c-0.1,0-0.3,0-0.4-0.1c-0.1-0.1-0.2-0.2-0.2-0.3c-0.1-0.1-0.1-0.2-0.1-0.3c0-0.1,0-0.2,0-0.4
		v-2c0-0.3-0.1-0.4-0.2-0.6c-0.1-0.1-0.2-0.2-0.4-0.2h-1.7v1.9h0.8v1.9h-2.1v-1.9h0.8V188c0-0.3,0-0.5-0.1-0.6
		c-0.1-0.2-0.2-0.3-0.3-0.4c0.1-0.1,0.3-0.2,0.3-0.3c0.1-0.2,0.1-0.4,0.1-0.6v-1.8h-0.8v-1.9h2.9c0.2,0,0.5,0,0.7,0.1
		c0.2,0.1,0.4,0.2,0.5,0.4c0.1,0.2,0.3,0.4,0.3,0.6c0.1,0.2,0.1,0.5,0.1,0.8v1.8c0,0.3,0,0.5-0.1,0.7c-0.1,0.2-0.2,0.3-0.4,0.5
		c0.1,0.1,0.1,0.2,0.2,0.3c0,0.1,0.1,0.2,0.1,0.4v0.5c0,0.1,0,0.3,0,0.4c0,0.1,0,0.2,0.1,0.3c0,0.1,0.1,0.1,0.2,0.2
		c0.1,0,0.2,0.1,0.3,0.1h0.4v1.9H154.3z M153.8,185c0-0.2-0.1-0.4-0.2-0.6s-0.2-0.2-0.4-0.2h-2v2.5h2c0.2,0,0.3-0.1,0.4-0.2
		c0.1-0.1,0.2-0.3,0.2-0.6V185z"/>
	<path d="M158.8,190.4v-1.9h0.5l-2.4-4.3v4.3h0.8v1.9h-2.1v-1.9h0.8v-1.3c0-0.1,0-0.2,0-0.3c0-0.1,0-0.2-0.1-0.3
		c0-0.1-0.1-0.2-0.1-0.2c-0.1-0.1-0.1-0.1-0.2-0.2c0.1,0,0.2-0.1,0.2-0.2c0.1-0.1,0.1-0.2,0.1-0.2c0-0.1,0.1-0.2,0.1-0.3
		c0-0.1,0-0.2,0-0.3v-1.8h-0.8v-1.9h2.1v1.9h-0.5l2.4,4.3v-4.3h-0.8v-1.9h2.1v1.9h-0.8v1.8c0,0.1,0,0.2,0,0.3s0,0.2,0.1,0.3
		c0,0.1,0.1,0.2,0.1,0.2c0.1,0.1,0.1,0.1,0.2,0.2c-0.1,0-0.2,0.1-0.2,0.2c-0.1,0.1-0.1,0.2-0.1,0.2c0,0.1-0.1,0.2-0.1,0.3
		s0,0.2,0,0.3v1.3h0.8v1.9H158.8z"/>
	<path d="M133.4,193.9l-0.3,1.9c0,0,0,0.1,0,0.1c0,0,0,0.1,0,0.1c0,0.2,0,0.3,0.1,0.4c0.1,0.1,0.1,0.2,0.2,0.3
		c-0.1,0.1-0.3,0.2-0.4,0.3c-0.1,0.1-0.2,0.3-0.2,0.5l-0.3,1.4h0.7v1.9h-2.1V199h0.4l-0.8-4.6l-0.8,4.6h0.5v1.9h-2.1V199h0.6
		l-0.2-1.4c0-0.2-0.1-0.4-0.2-0.6c-0.1-0.1-0.2-0.2-0.4-0.3c0.1-0.1,0.2-0.1,0.2-0.3c0.1-0.1,0.1-0.3,0.1-0.4c0,0,0-0.1,0-0.1
		c0,0,0-0.1,0-0.2l-0.3-1.8h-0.8V192h2.1v1.9h-0.7l0.8,4.6l0.8-4.6h-0.5V192h2.1v1.9h-0.6l0.8,4.6l0.8-4.6h-0.7V192h2.1v1.9H133.4z"
		/>
	<path fill="#FFFFFF" d="M137.9,201.6v-1.9h0.8v-1.9h-2.7v1.9h0.8v1.9h-2.1v-1.9h0.8v-1.3c0-0.2,0-0.4-0.1-0.6
		c-0.1-0.2-0.2-0.3-0.4-0.4c0.1,0,0.2-0.1,0.2-0.2c0.1-0.1,0.1-0.2,0.1-0.2c0-0.1,0.1-0.2,0.1-0.3s0-0.2,0-0.3v-1.8h-0.8v-1.9h2.1
		v1.9h-0.8v2.5h2.7v-2.5h-0.8v-1.9h2.1v1.9h-0.7v1.8c0,0.1,0,0.2,0,0.3c0,0.1,0,0.2,0.1,0.3c0,0.1,0.1,0.2,0.1,0.2
		c0.1,0.1,0.1,0.1,0.2,0.2c-0.2,0.1-0.3,0.2-0.4,0.4c-0.1,0.2-0.1,0.4-0.1,0.6v1.3h0.7v1.9H137.9z"/>
	<path d="M140.6,200.8V199h0.8v-1.3c0-0.3,0-0.5-0.1-0.6c-0.1-0.2-0.2-0.3-0.3-0.4c0.1-0.1,0.3-0.2,0.3-0.3c0.1-0.2,0.1-0.4,0.1-0.6
		v-1.8h-0.8V192h4.6v3.1h-0.6v-0.4c0-0.2,0-0.4-0.1-0.6c-0.1-0.1-0.2-0.2-0.4-0.2h-2.1v2.5h2.5v0.6h-2.5v1.9h2.1
		c0.2,0,0.3-0.1,0.4-0.2c0.1-0.1,0.1-0.3,0.1-0.6v-0.4h0.6v3H140.6z"/>
	<path fill="#FFFFFF" d="M150.1,201.6c-0.1,0-0.3,0-0.4-0.1c-0.1-0.1-0.2-0.2-0.2-0.3c-0.1-0.1-0.1-0.2-0.1-0.3c0-0.1,0-0.2,0-0.4
		v-2c0-0.3-0.1-0.4-0.2-0.6c-0.1-0.1-0.2-0.2-0.4-0.2h-1.7v1.9h0.8v1.9h-2.1v-1.9h0.8v-1.3c0-0.3,0-0.5-0.1-0.6
		c-0.1-0.2-0.2-0.3-0.3-0.4c0.1-0.1,0.3-0.2,0.3-0.3c0.1-0.2,0.1-0.4,0.1-0.6v-1.8h-0.8v-1.9h2.9c0.2,0,0.5,0,0.7,0.1
		c0.2,0.1,0.4,0.2,0.5,0.4c0.1,0.2,0.3,0.4,0.3,0.6c0.1,0.2,0.1,0.5,0.1,0.8v1.8c0,0.3,0,0.5-0.1,0.7c-0.1,0.2-0.2,0.3-0.4,0.5
		c0.1,0.1,0.1,0.2,0.2,0.3s0.1,0.2,0.1,0.4v0.5c0,0.1,0,0.3,0,0.4c0,0.1,0,0.2,0.1,0.3s0.1,0.1,0.2,0.2c0.1,0,0.2,0.1,0.3,0.1h0.4
		v1.9H150.1z M149.7,195.5c0-0.2-0.1-0.4-0.2-0.6c-0.1-0.1-0.2-0.2-0.4-0.2h-2v2.5h2c0.2,0,0.3-0.1,0.4-0.2c0.1-0.1,0.2-0.3,0.2-0.6
		V195.5z"/>
	<path d="M151.4,200.8V199h0.8v-1.3c0-0.3,0-0.5-0.1-0.6c-0.1-0.2-0.2-0.3-0.3-0.4c0.1-0.1,0.3-0.2,0.3-0.3c0.1-0.2,0.1-0.4,0.1-0.6
		v-1.8h-0.8V192h4.6v3.1h-0.6v-0.4c0-0.2,0-0.4-0.1-0.6c-0.1-0.1-0.2-0.2-0.4-0.2h-2.1v2.5h2.5v0.6h-2.5v1.9h2.1
		c0.2,0,0.3-0.1,0.4-0.2s0.1-0.3,0.1-0.6v-0.4h0.6v3H151.4z"/>
</g>
</svg>
